<?xml version="1.0" encoding="utf-8"?>
<!-- Generator: Adobe Illustrator 23.0.1, SVG Export Plug-In . SVG Version: 6.00 Build 0)  -->
<svg version="1.1" id="Layer_1" xmlns="http://www.w3.org/2000/svg" xmlns:xlink="http://www.w3.org/1999/xlink" x="0px" y="0px"
	 viewBox="0 0 210 95" style="enable-background:new 0 0 210 95;" xml:space="preserve">
<style type="text/css">
	.st0{fill:#FFFFFF;}
</style>
<g>
	<g>
		<g>
			<path class="st0" d="M45.1,43.7c0.8,0,1.5,0.1,2.1,0.2c0.7,0.1,1.2,0.3,1.7,0.5c0.5,0.2,0.8,0.4,1.1,0.7c0.3,0.2,0.4,0.4,0.4,0.6
				c0,0.4,0,0.9,0,1.6s-0.1,1.4-0.1,2.3l-0.8,0c0-0.1,0-0.2,0-0.2c0-0.1,0-0.2,0-0.2c0-0.4-0.1-0.8-0.1-1.2c-0.1-0.4-0.2-0.7-0.5-1
				c-0.2-0.3-0.5-0.6-0.8-0.9c-0.3-0.3-0.7-0.5-1.1-0.6S46.3,45,45.8,45c-0.4-0.1-0.9-0.1-1.3-0.1c-0.8,0-1.5,0.1-2.1,0.4
				c-0.6,0.2-1.2,0.6-1.7,1c-0.5,0.4-0.9,0.9-1.3,1.5s-0.7,1.2-0.9,1.9c-0.2,0.7-0.4,1.4-0.5,2.2c-0.1,0.8-0.2,1.5-0.2,2.3
				c0,0.9,0.1,1.8,0.2,2.6s0.4,1.6,0.6,2.2s0.6,1.3,1,1.8c0.4,0.5,0.8,1,1.3,1.4s1,0.7,1.6,0.9c0.6,0.2,1.2,0.3,1.8,0.3
				c0.4,0,0.9,0,1.4-0.1c0.5-0.1,0.9-0.2,1.4-0.5c0.5-0.2,1-0.5,1.5-0.8c0.5-0.3,1-0.7,1.5-1.1c0,0,0.1,0.1,0.2,0.1
				c0.1,0,0.1,0.1,0.2,0.1s0.1,0.1,0.1,0.1c0,0.1,0.1,0.1,0.1,0.2c0,0,0,0.1-0.1,0.1c-0.6,0.6-1.2,1.2-1.7,1.6
				c-0.6,0.4-1.2,0.8-1.8,1c-0.6,0.3-1.2,0.5-1.8,0.6c-0.6,0.1-1.2,0.2-1.8,0.2c-0.8,0-1.5-0.1-2.3-0.3s-1.4-0.5-2-0.9
				c-0.6-0.4-1.2-0.9-1.7-1.5s-0.9-1.2-1.3-2c-0.4-0.7-0.6-1.5-0.8-2.4c-0.2-0.8-0.3-1.7-0.3-2.7c0-0.9,0.1-1.8,0.3-2.7
				c0.2-0.9,0.5-1.8,0.8-2.6c0.4-0.8,0.8-1.6,1.4-2.4c0.6-0.7,1.2-1.4,1.9-1.9c0.7-0.5,1.6-1,2.5-1.3C43,43.8,44,43.7,45.1,43.7z"/>
			<path class="st0" d="M59.8,55.3c0-0.5-0.1-0.9-0.2-1.2c-0.2-0.3-0.4-0.6-0.6-0.8c-0.2-0.2-0.5-0.4-0.8-0.5
				c-0.3-0.1-0.6-0.2-0.9-0.2c-0.4,0-0.8,0-1.1,0.1c-0.3,0.1-0.5,0.2-0.7,0.4c-0.2,0.2-0.3,0.3-0.4,0.5C55,53.8,55,54,55,54.3
				c0,0.3,0.1,0.6,0.2,0.8c0.1,0.3,0.3,0.6,0.5,0.8l0,0.1c-0.3,0.2-0.7,0.2-1,0.2c-0.2,0-0.4,0-0.6-0.1c-0.2-0.1-0.3-0.2-0.4-0.3
				s-0.2-0.3-0.3-0.4c-0.1-0.2-0.1-0.4-0.1-0.6c0-0.3,0.1-0.7,0.2-1s0.4-0.6,0.7-0.8c0.3-0.3,0.6-0.5,1-0.7c0.4-0.2,0.7-0.4,1.1-0.5
				c0.4-0.1,0.8-0.2,1.2-0.3c0.4-0.1,0.7-0.1,1.1-0.1c0.6,0,1.1,0.1,1.6,0.2c0.4,0.2,0.8,0.4,1.1,0.7c0.3,0.3,0.5,0.7,0.6,1.1
				s0.2,0.9,0.2,1.5c0,0.4,0,0.8,0,1.3c0,0.5-0.1,0.9-0.1,1.5c0,0.5-0.1,1-0.1,1.6c0,0.5,0,1.1,0,1.6c0,0.8,0.2,1.5,0.5,1.9
				c0.3,0.4,0.7,0.6,1.2,0.6c0.4,0,1-0.2,1.5-0.5l0.3,0.4c-0.4,0.4-0.8,0.7-1.3,0.9c-0.5,0.2-0.9,0.3-1.5,0.3
				c-0.4,0-0.7-0.1-1.1-0.2c-0.3-0.1-0.6-0.3-0.8-0.6c-0.2-0.3-0.4-0.6-0.5-1s-0.2-0.8-0.2-1.3c0-0.2,0-0.3,0-0.5
				c0-0.2,0-0.3,0.1-0.5h-0.1c-0.3,0.5-0.5,1-0.9,1.5c-0.3,0.5-0.7,0.9-1.1,1.3c-0.4,0.4-0.8,0.7-1.3,0.9c-0.4,0.2-0.9,0.4-1.4,0.4
				c-0.4,0-0.8-0.1-1.1-0.2c-0.3-0.1-0.6-0.3-0.9-0.6c-0.2-0.2-0.4-0.5-0.6-0.9s-0.2-0.7-0.2-1.1c0-0.5,0.1-1,0.3-1.4
				s0.5-0.8,0.8-1.1c0.3-0.3,0.7-0.6,1.2-0.9c0.5-0.2,1-0.4,1.5-0.6c0.5-0.2,1.1-0.3,1.7-0.4c0.6-0.1,1.2-0.1,1.9-0.1
				c0-0.4,0.1-0.7,0.1-1.1C59.8,56,59.8,55.7,59.8,55.3z M54.5,61.3c0,0.2,0,0.4,0.1,0.7c0,0.2,0.1,0.4,0.2,0.5
				c0.1,0.2,0.2,0.3,0.4,0.4s0.4,0.1,0.6,0.1c0.3,0,0.5-0.1,0.8-0.2c0.3-0.1,0.6-0.3,0.8-0.5s0.5-0.5,0.8-0.8c0.2-0.3,0.5-0.6,0.7-1
				s0.4-0.7,0.5-1.1c0.1-0.4,0.2-0.8,0.3-1.2c-0.4,0-0.9,0-1.3,0.1c-0.4,0-0.8,0.1-1.2,0.2c-0.4,0.1-0.7,0.2-1.1,0.4
				s-0.6,0.3-0.8,0.6c-0.2,0.2-0.4,0.5-0.6,0.8C54.5,60.5,54.5,60.9,54.5,61.3z"/>
			<path class="st0" d="M70.4,45.6c0.3,0.5,0.6,1,0.9,1.6c0.3,0.6,0.7,1.2,1.1,1.9c0.4,0.7,0.8,1.3,1.2,2c0.4,0.7,0.8,1.4,1.3,2.1
				c0.4,0.7,0.9,1.4,1.3,2.1c0.4,0.7,0.8,1.3,1.2,2c0.4,0.6,0.8,1.2,1.1,1.8c0.4,0.5,0.7,1,1,1.5c0-1.6,0-3,0-4.3c0-1.3,0-2.4,0-3.5
				c0-1,0-2,0.1-2.8c0-0.8,0.1-1.5,0.1-2.1c0-0.6,0.1-1.1,0.1-1.5c0-0.4,0.1-0.8,0.2-1c0.1-0.2,0.1-0.4,0.2-0.6
				c0.1-0.2,0.2-0.3,0.3-0.4c0.1-0.1,0.3-0.2,0.4-0.2s0.3-0.1,0.5-0.1c0.4,0,0.8,0.1,1.2,0.3v0.1c-0.3,0.4-0.5,0.9-0.7,1.6
				c-0.2,0.6-0.4,1.4-0.5,2.2c-0.1,0.8-0.3,1.6-0.4,2.5c-0.1,0.9-0.2,1.7-0.2,2.6c-0.1,0.9-0.1,1.7-0.1,2.5c0,0.8,0,1.5-0.1,2.1
				c0,0.5,0,1.1,0,1.6c0,0.5,0,1,0,1.6c0,0.5,0,1.1,0,1.6c0,0.5,0,1.1,0,1.7l-1.1,0.1l-0.2,0c-0.2-0.2-0.4-0.6-0.7-1
				C78.3,63,78,62.5,77.6,62s-0.7-1.1-1.1-1.7c-0.4-0.6-0.8-1.3-1.2-2c-0.4-0.7-0.9-1.4-1.3-2.1c-0.4-0.7-0.9-1.4-1.3-2.1
				c-0.4-0.7-0.8-1.4-1.3-2.1c-0.4-0.7-0.8-1.3-1.1-1.9c-0.4-0.6-0.7-1.1-1-1.6c-0.3-0.5-0.5-0.9-0.7-1.2c0,1.3,0,2.5-0.1,3.8
				c0,1.2-0.1,2.4-0.1,3.5c0,1.1-0.1,2.2-0.1,3.2c0,1-0.1,2-0.2,2.8c0,0.6-0.1,1.1-0.1,1.6c0,0.4-0.1,0.8-0.2,1.1
				c-0.1,0.3-0.1,0.5-0.2,0.7c-0.1,0.2-0.2,0.3-0.3,0.4c-0.1,0.1-0.3,0.1-0.5,0.2c-0.2,0-0.4,0-0.7,0h-0.2c0,0-0.1,0-0.2,0
				c-0.1,0-0.2,0-0.3,0l-0.1-0.1c0.3-0.6,0.5-1.2,0.7-1.9c0.2-0.7,0.4-1.4,0.5-2.2c0.1-0.8,0.3-1.6,0.4-2.4c0.1-0.8,0.2-1.7,0.3-2.5
				c0.1-0.8,0.1-1.7,0.2-2.5c0-0.8,0.1-1.6,0.1-2.3s0-1.4,0-2.1c0-0.6,0-1.2,0-1.6c0-0.3,0-0.5-0.1-0.6c0-0.2-0.1-0.3-0.2-0.4
				s-0.2-0.2-0.4-0.2c-0.2-0.1-0.4-0.1-0.7-0.1c-0.2,0-0.4,0-0.7,0c-0.2,0-0.5,0.1-0.8,0.1l-0.1-0.8c0.5-0.1,0.9-0.2,1.3-0.3
				c0.4-0.1,0.8-0.2,1.1-0.2s0.6-0.1,0.9-0.1c0.3,0,0.5,0,0.7,0c0.2,0,0.4,0,0.6,0.1c0.2,0.1,0.3,0.1,0.4,0.3s0.3,0.3,0.4,0.5
				S70.2,45.3,70.4,45.6z"/>
			<path class="st0" d="M96.8,40.7c-0.2,1.5-0.4,3-0.6,4.6s-0.4,3.1-0.5,4.6c-0.1,1.5-0.3,3.1-0.4,4.6c-0.1,1.5-0.1,2.9-0.1,4.3
				c0,0.7,0,1.2,0,1.7c0,0.5,0,0.9,0.1,1.2s0.1,0.6,0.1,0.8c0.1,0.2,0.1,0.3,0.2,0.4s0.2,0.2,0.3,0.2c0.1,0,0.2,0,0.4,0
				c0.3,0,0.6,0,0.9-0.1s0.7-0.2,1-0.4l0.2,0.5c-0.2,0.2-0.5,0.3-0.8,0.5c-0.3,0.2-0.7,0.3-1,0.5c-0.4,0.1-0.7,0.3-1,0.4
				c-0.3,0.1-0.6,0.1-0.9,0.1c-0.2,0-0.3,0-0.5-0.1s-0.3-0.1-0.3-0.2c-0.1-0.1-0.2-0.2-0.2-0.4c-0.1-0.2-0.1-0.4-0.2-0.6
				c-0.1-0.4-0.1-0.8-0.1-1.2c0-0.5,0-1,0-1.5c0-0.6,0-1.2,0.1-1.8s0.1-1.2,0.2-1.8l-0.1,0c-0.5,1.2-0.9,2.3-1.5,3.2
				s-1.1,1.8-1.6,2.5s-1.1,1.2-1.7,1.6c-0.6,0.4-1.1,0.5-1.6,0.5c-0.5,0-1-0.1-1.4-0.4c-0.4-0.3-0.7-0.6-0.9-1.1
				c-0.2-0.4-0.4-0.9-0.5-1.5C84.1,61.2,84,60.6,84,60c0-0.7,0.1-1.4,0.2-2.1c0.2-0.7,0.4-1.4,0.7-2s0.6-1.2,1.1-1.7
				c0.4-0.5,0.9-1,1.4-1.4c0.5-0.4,1.1-0.7,1.7-0.9c0.6-0.2,1.2-0.3,1.9-0.3c0.5,0,0.9,0.1,1.4,0.2c0.5,0.1,0.9,0.3,1.4,0.6
				c0-1,0.1-2,0.1-3c0-1,0.1-2,0.2-3s0.1-1.9,0.2-2.8c0.1-0.9,0.1-1.6,0.2-2.3c0-0.1,0.1-0.3,0.1-0.4c0.1-0.1,0.2-0.2,0.3-0.2
				c0.1-0.1,0.3-0.1,0.4-0.1c0.1,0,0.3,0,0.4,0C96,40.5,96.4,40.6,96.8,40.7z M93.6,53.1c-0.8-0.4-1.6-0.6-2.3-0.6
				c-0.6,0-1.1,0.1-1.6,0.3c-0.5,0.2-0.9,0.4-1.3,0.8s-0.7,0.7-1,1.1s-0.5,0.9-0.7,1.4c-0.2,0.5-0.3,1-0.4,1.5
				c-0.1,0.5-0.1,1.1-0.1,1.6c0,0.2,0,0.4,0,0.6s0.1,0.5,0.1,0.8c0,0.3,0.1,0.5,0.2,0.8c0.1,0.2,0.2,0.5,0.3,0.7
				c0.1,0.2,0.3,0.4,0.4,0.5c0.2,0.1,0.4,0.2,0.6,0.2c0.4,0,0.9-0.2,1.3-0.5c0.4-0.3,0.9-0.7,1.3-1.3s0.8-1.1,1.2-1.8s0.7-1.4,1-2.1
				s0.5-1.4,0.7-2.1C93.5,54.3,93.6,53.7,93.6,53.1z"/>
			<path class="st0" d="M102.2,45c0.1,0.2,0.2,0.5,0.4,0.8c0.1,0.3,0.3,0.7,0.5,1.1c0.2,0.4,0.4,0.9,0.6,1.3c0.2,0.5,0.4,1,0.6,1.5
				c0.2,0.5,0.4,1,0.6,1.5c0.2,0.5,0.4,1,0.5,1.5c0.2,0.4,0.3,0.8,0.4,1.2c0.1,0.3,0.2,0.7,0.3,1h0.1c0.3-0.6,0.6-1.3,0.8-2
				s0.6-1.3,0.8-1.9c0.3-0.6,0.6-1.3,0.8-1.9c0.3-0.6,0.5-1.2,0.8-1.7c0.2-0.5,0.5-1,0.7-1.4c0.2-0.4,0.4-0.8,0.6-1.1
				c0.1-0.2,0.2-0.4,0.3-0.5c0.1-0.1,0.2-0.2,0.4-0.3c0.1-0.1,0.3-0.1,0.4-0.1c0.1,0,0.3,0,0.4,0c0.1,0,0.2,0,0.3,0
				c0.1,0,0.2,0,0.3,0.1c0.1,0,0.2,0.1,0.3,0.1c0.1,0,0.2,0.1,0.3,0.2c-0.9,1.2-1.6,2.2-2.3,3.3c-0.7,1-1.2,2-1.7,2.8
				c-0.5,0.9-0.9,1.6-1.2,2.3s-0.6,1.3-0.8,1.7c-0.1,0.3-0.3,0.6-0.4,0.9c-0.1,0.3-0.2,0.6-0.3,0.9c-0.1,0.3-0.1,0.7-0.2,1.1
				c0,0.4-0.1,0.9-0.1,1.5c0,0.4,0,0.7,0,1.1s0,0.8,0,1.2s0,0.9,0,1.4c0,0.5,0,1,0,1.6l-2.1,0.3l-0.2,0c0-0.8,0.1-1.5,0.1-2.3
				c0-0.8,0.1-1.4,0.1-2.1s0-1.2,0-1.6c0-0.5,0-0.8,0-1c0-0.4,0-0.8-0.1-1.1s-0.1-0.8-0.3-1.3c-0.1-0.5-0.3-1-0.5-1.5
				c-0.2-0.5-0.4-1.1-0.6-1.6c-0.2-0.6-0.4-1.1-0.7-1.6c-0.2-0.5-0.4-1-0.7-1.5s-0.4-0.9-0.6-1.3c-0.2-0.4-0.3-0.7-0.5-0.9
				c-0.1-0.2-0.2-0.4-0.3-0.5s-0.2-0.3-0.4-0.4c-0.1-0.1-0.3-0.2-0.5-0.2c-0.2,0-0.4-0.1-0.6-0.1c-0.2,0-0.4,0-0.7,0
				s-0.5,0.1-0.7,0.1l-0.1-0.8c0.9-0.2,1.6-0.4,2.2-0.5s1.1-0.2,1.4-0.2s0.7,0.1,0.9,0.2S102,44.6,102.2,45z"/>
			<path class="st0" d="M121.5,61.1c0,0.4,0.2,0.8,0.4,1.1c0.2,0.3,0.4,0.6,0.7,0.8c0.3,0.2,0.6,0.4,1,0.5c0.3,0.1,0.7,0.1,1,0.1
				c0.3,0,0.6,0,0.9-0.1c0.3-0.1,0.6-0.2,0.8-0.4c0.2-0.2,0.4-0.4,0.5-0.6c0.1-0.2,0.2-0.5,0.2-0.8c0-0.3-0.1-0.6-0.2-0.8
				c-0.1-0.2-0.3-0.4-0.6-0.6c-0.2-0.2-0.5-0.4-0.9-0.5c-0.3-0.2-0.7-0.3-1-0.5c-0.3-0.1-0.6-0.3-0.9-0.4s-0.6-0.3-0.9-0.5
				s-0.6-0.4-0.8-0.6c-0.3-0.2-0.5-0.4-0.7-0.7c-0.2-0.2-0.3-0.5-0.4-0.8s-0.2-0.6-0.2-1c0-0.4,0.1-0.8,0.2-1.1
				c0.1-0.3,0.3-0.6,0.6-0.9s0.5-0.5,0.8-0.7c0.3-0.2,0.7-0.4,1-0.5c0.4-0.1,0.7-0.2,1.1-0.3c0.4-0.1,0.8-0.1,1.1-0.1
				c0.5,0,0.9,0.1,1.3,0.2s0.8,0.3,1.1,0.4s0.6,0.4,0.7,0.7c0.2,0.3,0.3,0.6,0.3,0.9c0,0.1,0,0.3-0.1,0.4s-0.1,0.3-0.2,0.4
				s-0.3,0.3-0.4,0.3c-0.2,0.1-0.4,0.1-0.7,0.1c-0.2,0-0.5,0-0.8-0.1l0-0.1c0.1-0.2,0.1-0.4,0.2-0.5c0-0.2,0.1-0.3,0.1-0.4
				c0-0.3-0.1-0.5-0.2-0.7c-0.1-0.2-0.3-0.3-0.5-0.5s-0.4-0.2-0.7-0.3c-0.2-0.1-0.5-0.1-0.7-0.1c-0.4,0-0.8,0.1-1.1,0.2
				s-0.6,0.3-0.8,0.4c-0.2,0.2-0.4,0.4-0.5,0.6c-0.1,0.2-0.2,0.5-0.2,0.7c0,0.3,0.1,0.6,0.3,0.9c0.2,0.3,0.4,0.5,0.7,0.7
				c0.3,0.2,0.6,0.4,1,0.6s0.7,0.4,1.1,0.6c0.4,0.2,0.9,0.4,1.3,0.7c0.4,0.2,0.8,0.5,1.2,0.8c0.3,0.3,0.6,0.6,0.8,1
				c0.2,0.4,0.3,0.8,0.3,1.3c0,0.6-0.1,1.1-0.4,1.6c-0.3,0.5-0.6,0.9-1.1,1.2c-0.4,0.3-1,0.6-1.5,0.7c-0.6,0.2-1.2,0.3-1.8,0.3
				c-0.3,0-0.6,0-1-0.1s-0.7-0.1-1-0.2c-0.3-0.1-0.6-0.2-0.9-0.3s-0.5-0.3-0.7-0.5c-0.2-0.2-0.4-0.4-0.5-0.6
				c-0.1-0.2-0.2-0.5-0.2-0.7c0-0.2,0-0.4,0.1-0.6c0.1-0.2,0.2-0.3,0.4-0.4c0.2-0.1,0.3-0.2,0.5-0.2C121,61.1,121.2,61,121.5,61.1
				L121.5,61.1z"/>
			<path class="st0" d="M135.1,46.5c0,0.2,0,0.6,0,0.9c0,0.4,0,0.9,0,1.4c0,0.6,0,1.2-0.1,1.9c0,0.7,0,1.6-0.1,2.5
				c0.8,0,1.7-0.1,2.4-0.1c0.8,0,1.5,0,2.3-0.1s1.5,0,2.3,0c0.8,0,1.5,0,2.3,0c0-0.6,0-1.2,0.1-1.8s0-1.2,0.1-1.9s0.1-1.4,0.1-2.1
				c0-0.8,0.1-1.6,0.2-2.5c0-0.1,0-0.2,0.1-0.3c0.1-0.1,0.2-0.2,0.3-0.2c0.1-0.1,0.2-0.1,0.4-0.1c0.1,0,0.3,0,0.4,0
				c0.2,0,0.4,0,0.5,0.1c0.2,0,0.4,0.1,0.6,0.2c-0.1,1-0.2,1.9-0.2,2.8s-0.1,1.7-0.2,2.6s-0.1,1.6-0.1,2.5s-0.1,1.6-0.1,2.4
				c0,0.8,0,1.7,0,2.5c0,0.9,0,1.8,0,2.7c0,0.6,0,1.1,0.1,1.6c0.1,0.4,0.1,0.8,0.3,1.1s0.3,0.5,0.5,0.6c0.2,0.1,0.5,0.2,0.8,0.2
				c0.2,0,0.5,0,0.7-0.1s0.6-0.1,1-0.3l0.2,0.7c-0.4,0.2-0.8,0.3-1.2,0.5c-0.4,0.1-0.7,0.2-1,0.3c-0.3,0.1-0.6,0.2-0.9,0.2
				c-0.3,0-0.5,0.1-0.8,0.1c-0.3,0-0.6-0.1-0.9-0.2c-0.3-0.1-0.5-0.3-0.6-0.6c-0.2-0.3-0.3-0.7-0.4-1.1c-0.1-0.5-0.1-1-0.1-1.7v-2
				c0-0.5,0-0.9,0-1.3s0-0.8,0-1.2c0-0.4,0-0.8,0-1.1s0-0.7,0-1.1c-0.8,0-1.6,0-2.3,0c-0.8,0-1.5,0-2.3,0s-1.5,0-2.3,0.1
				c-0.8,0-1.6,0.1-2.4,0.1l-0.3,9.8l-2.1,0.3l-0.2,0c0.1-1.7,0.1-3.3,0.2-4.8c0.1-1.5,0.1-3,0.1-4.4c0-1.4,0.1-2.8,0.1-4.2
				s0-2.8,0-4.2c0-0.3,0-0.5-0.1-0.7c0-0.2-0.1-0.4-0.2-0.5c-0.1-0.1-0.3-0.2-0.4-0.3c-0.2-0.1-0.4-0.1-0.7-0.1
				c-0.4,0-0.9,0-1.5,0.1l-0.1-0.7c0.8-0.2,1.6-0.4,2.2-0.5c0.6-0.1,1.1-0.2,1.5-0.2c0.4,0,0.7,0.1,0.9,0.2c0.2,0.1,0.4,0.3,0.5,0.5
				c0.1,0.2,0.2,0.4,0.2,0.7S135.1,46.1,135.1,46.5z"/>
			<path class="st0" d="M150.4,59.2c0-0.6,0.1-1.2,0.2-1.8c0.1-0.6,0.3-1.2,0.5-1.8c0.2-0.6,0.5-1.1,0.9-1.6s0.8-0.9,1.2-1.3
				c0.5-0.4,1-0.7,1.5-0.9c0.6-0.2,1.2-0.3,1.8-0.3c0.7,0,1.4,0.2,2,0.5c0.6,0.3,1.1,0.7,1.5,1.3c0.4,0.5,0.7,1.1,0.9,1.8
				c0.2,0.7,0.3,1.3,0.3,2c0,0.6-0.1,1.2-0.2,1.8c-0.1,0.6-0.3,1.2-0.5,1.8c-0.2,0.6-0.5,1.1-0.9,1.6c-0.4,0.5-0.8,0.9-1.2,1.3
				s-1,0.7-1.5,0.9c-0.6,0.2-1.2,0.3-1.8,0.3c-0.7,0-1.4-0.2-2-0.5c-0.6-0.3-1.1-0.7-1.4-1.2c-0.4-0.5-0.7-1.1-0.9-1.8
				C150.5,60.6,150.4,59.9,150.4,59.2z M152.5,58.4c0,0.4,0,0.8,0.1,1.2c0.1,0.4,0.2,0.8,0.3,1.2c0.1,0.4,0.3,0.7,0.5,1.1
				c0.2,0.3,0.4,0.6,0.7,0.9c0.3,0.2,0.6,0.4,0.9,0.6c0.3,0.1,0.7,0.2,1.1,0.2c0.4,0,0.8-0.1,1.1-0.3c0.3-0.2,0.6-0.4,0.8-0.7
				s0.4-0.7,0.6-1c0.2-0.4,0.3-0.8,0.4-1.2c0.1-0.4,0.2-0.8,0.2-1.2s0.1-0.8,0.1-1.1c0-0.4,0-0.8-0.1-1.2c-0.1-0.4-0.2-0.8-0.3-1.2
				c-0.1-0.4-0.3-0.7-0.5-1.1c-0.2-0.3-0.4-0.6-0.7-0.9c-0.3-0.2-0.6-0.4-0.9-0.6c-0.3-0.1-0.7-0.2-1.1-0.2c-0.4,0-0.8,0.1-1.1,0.3
				c-0.3,0.2-0.6,0.4-0.8,0.7c-0.2,0.3-0.4,0.7-0.6,1c-0.2,0.4-0.3,0.8-0.4,1.2c-0.1,0.4-0.2,0.8-0.2,1.2S152.5,58.1,152.5,58.4z"/>
			<path class="st0" d="M165.4,46.8c0-0.2,0-0.5-0.1-0.6s-0.1-0.3-0.2-0.4c-0.1-0.1-0.2-0.2-0.4-0.2c-0.2-0.1-0.4-0.1-0.7-0.1
				c-0.4,0-0.9,0-1.5,0.1l-0.1-0.8c0.5-0.1,1.1-0.2,1.8-0.3c0.7-0.1,1.3-0.2,2-0.3c0.7-0.1,1.4-0.2,2.1-0.2c0.7-0.1,1.4-0.1,2-0.1
				c0.8,0,1.6,0.1,2.4,0.2s1.4,0.4,1.9,0.8s1,0.9,1.3,1.5s0.5,1.4,0.5,2.3c0,1.1-0.2,2-0.5,2.9c-0.4,0.8-0.9,1.6-1.5,2.2
				s-1.4,1-2.3,1.4s-1.9,0.5-3,0.5c-0.2,0-0.4,0-0.5-0.1s-0.1-0.2-0.1-0.5v-0.1c0-0.1,0-0.1,0-0.1c0.9,0,1.6-0.1,2.2-0.3
				s1.1-0.4,1.6-0.7c0.4-0.3,0.8-0.6,1-1c0.3-0.4,0.4-0.8,0.6-1.2c0.1-0.4,0.2-0.8,0.3-1.2c0-0.4,0.1-0.7,0.1-1.1
				c0-0.8-0.1-1.6-0.4-2.1c-0.2-0.6-0.6-1-1-1.3s-0.9-0.6-1.4-0.7c-0.5-0.1-1.1-0.2-1.7-0.2c-0.3,0-0.6,0-0.9,0s-0.6,0.1-0.9,0.1
				c0,0.5,0,1.1,0,1.8c0,0.8,0,1.6-0.1,2.6s-0.1,2.1-0.1,3.2s-0.1,2.4-0.1,3.7c0,1.3-0.1,2.6-0.1,3.9c0,1.3-0.1,2.7-0.1,4l-2.1,0.3
				l-0.2,0c0.1-1.7,0.1-3.3,0.2-4.8c0.1-1.5,0.1-3,0.1-4.4c0-1.4,0.1-2.8,0.1-4.2S165.4,48.3,165.4,46.8z"/>
		</g>
		<g>
			<g>
				<path class="st0" d="M203.3,48.1c-0.5,0-0.8,0.4-0.8,0.9c0,1-0.1,2.1-0.5,3.1c-0.6,1.7-1.9,3.1-3.6,3.8c-3,1.3-7,0.5-8.5-2.6
					c-1.1-2.2-0.5-5.2,1.9-6.3c2-0.9,4.7-0.1,5.3,2.1c0.3,1-0.2,2.1-1.1,2.5c-0.6,0.3-1.2,0.2-1.8-0.3c-0.4-0.3-0.9-0.2-1.2,0.1
					c-0.3,0.4-0.2,0.9,0.1,1.2c1.1,0.9,2.4,1.1,3.6,0.5c1.6-0.8,2.4-2.6,2-4.4c-0.8-3.3-4.7-4.5-7.6-3.2c-3.2,1.5-4.2,5.5-2.7,8.6
					c1.9,3.9,6.9,5.1,10.7,3.4c2.1-0.9,3.7-2.6,4.4-4.8c0.4-1.2,0.6-2.5,0.6-3.7C204.1,48.4,203.7,48.1,203.3,48.1L203.3,48.1z"/>
				<path class="st0" d="M200,36c-2.7-1-5.6-1.3-8.4-0.7c-4.3,0.9-7.6,3.9-8.7,8c-0.2,0.8-0.3,1.4-0.3,1.7c-0.9,1.6-1.5,3.4-1.6,5.4
					c-0.1,2.6,0.6,5,2,7.1l-15.2,15.2c-1.1,1.1-1.1,2.9,0,4c1.1,1.1,2.9,1.1,4,0l15.3-15.4c4.2,2.6,9.5,3.1,14.1,1
					c3.5-1.6,6.2-4.4,7.5-7.9C211.4,47.1,207.5,38.9,200,36L200,36z M185.7,60.3l-15.1,15.1c-0.5,0.5-1.2,0.5-1.6,0
					c-0.5-0.5-0.5-1.2,0-1.6l15-15C184.5,59.4,185.1,59.9,185.7,60.3L185.7,60.3z M207.1,53.8c-1.2,3.1-3.5,5.6-6.6,7
					c-4.8,2.1-10.6,1.1-14.5-2.4c-2.1-1.8-3.3-4.5-3.4-7.3c0-2.7,1-5.5,3-7.4c3.8-3.6,9.9-3.9,13.9-0.6c0.4,0.3,0.9,0.2,1.2-0.1
					c0.3-0.4,0.2-0.9-0.1-1.2c-4.4-3.7-11-3.5-15.4,0.1c1.3-2.5,3.7-4.4,6.7-5c2.5-0.5,5.1-0.3,7.5,0.6
					C206.1,40.1,209.5,47.4,207.1,53.8L207.1,53.8z"/>
				<path class="st0" d="M201.9,46.1c0.6,0.4,1.5-0.2,1.3-0.9c-0.1-0.3-0.4-0.6-0.8-0.6c-0.4,0-0.7,0.2-0.8,0.5
					C201.5,45.4,201.6,45.8,201.9,46.1L201.9,46.1z"/>
			</g>
		</g>
		<g>
			<g>
				<path class="st0" d="M5.9,48.8c0.4,0,0.8,0.4,0.8,0.8c0,1,0.1,2,0.5,3c0.6,1.7,1.8,3,3.4,3.7c2.8,1.3,6.6,0.5,8-2.5
					c1-2.2,0.5-5.1-1.8-6.2c-1.9-0.9-4.4-0.1-5,2.1c-0.2,1,0.2,2,1,2.5c0.6,0.3,1.1,0.2,1.7-0.3c0.3-0.3,0.8-0.2,1.1,0.1
					s0.2,0.9-0.1,1.1c-1.1,0.9-2.3,1-3.4,0.5c-1.5-0.8-2.3-2.5-1.9-4.3c0.8-3.2,4.4-4.4,7.2-3.2c3.1,1.4,4,5.4,2.5,8.4
					c-1.8,3.8-6.5,5-10.1,3.3c-2-0.9-3.5-2.6-4.2-4.7c-0.4-1.2-0.6-2.4-0.6-3.6C5.1,49.1,5.5,48.8,5.9,48.8L5.9,48.8z"/>
				<path class="st0" d="M9,37c2.6-1,5.3-1.3,8-0.7c4,0.9,7.1,3.8,8.2,7.8c0.2,0.8,0.3,1.3,0.3,1.7c0.9,1.6,1.4,3.3,1.5,5.3
					c0.1,2.5-0.5,4.9-1.8,7l14.3,14.8c1,1.1,1,2.8,0,3.9c-1,1.1-2.7,1.1-3.8,0l-14.4-15c-4,2.5-9,3-13.3,1c-3.3-1.5-5.8-4.3-7.1-7.7
					C-1.7,47.9,1.9,39.8,9,37L9,37z M22.5,60.7l14.2,14.8c0.4,0.4,1.1,0.4,1.5,0c0.4-0.4,0.4-1.2,0-1.6L24.1,59.2
					C23.6,59.8,23.1,60.3,22.5,60.7L22.5,60.7z M2.3,54.4c1.1,3,3.3,5.5,6.2,6.8c4.5,2.1,10,1.1,13.7-2.3c2-1.8,3.1-4.4,3.2-7.1
					c0-2.7-0.9-5.4-2.8-7.3C19,41.1,13.2,40.7,9.4,44c-0.3,0.3-0.8,0.2-1.1-0.1C8,43.5,8.1,43,8.4,42.7c4.2-3.6,10.4-3.4,14.6,0.1
					c-1.2-2.5-3.5-4.3-6.4-4.9c-2.4-0.5-4.8-0.3-7.1,0.6C3.3,41,0,48.1,2.3,54.4L2.3,54.4z"/>
				<path class="st0" d="M7.2,46.8c-0.6,0.4-1.4-0.2-1.2-0.9c0.1-0.3,0.4-0.6,0.7-0.6c0.3,0,0.6,0.2,0.8,0.5
					C7.6,46.2,7.5,46.6,7.2,46.8L7.2,46.8z"/>
			</g>
		</g>
	</g>
	<g>
		<path class="st0" d="M48.6,85c0.4-0.1,0.7-0.3,1-0.4c0.3-0.2,0.6-0.3,0.8-0.5c0.2-0.2,0.4-0.4,0.5-0.6c0.1-0.2,0.2-0.4,0.2-0.6
			c0-0.1,0-0.2,0-0.2c0-0.1-0.1-0.1-0.1-0.2c-0.1-0.1-0.1-0.1-0.2-0.1c-0.1,0-0.1,0-0.2,0c-0.2,0-0.4,0.1-0.6,0.2
			c-0.2,0.1-0.4,0.3-0.6,0.5s-0.4,0.5-0.6,0.8c-0.2,0.3-0.4,0.7-0.5,1.1c-0.2,0.4-0.3,0.9-0.4,1.4c-0.1,0.5-0.2,1-0.3,1.6L46.5,88
			l-0.1,0c0-0.4,0-0.8,0.1-1.2c0-0.4,0-0.9,0.1-1.4c0-0.5,0.1-1,0.1-1.5c0-0.5,0.1-1.1,0.1-1.6c0-0.5,0.1-1.1,0.1-1.6
			c0-0.6,0.1-1.1,0.1-1.6c0-0.5,0.1-1.1,0.1-1.6c0-0.5,0.1-1,0.1-1.5c0-0.1,0-0.1,0.1-0.2s0.1-0.1,0.2-0.1c0.1,0,0.1-0.1,0.2-0.1
			s0.2,0,0.2,0c0.2,0,0.4,0,0.6,0.1c-0.1,0.6-0.1,1.2-0.2,1.7c-0.1,0.5-0.1,1-0.1,1.4c0,0.4-0.1,0.9-0.1,1.2c0,0.4-0.1,0.8-0.1,1.1
			c0,0.4-0.1,0.7-0.1,1c0,0.3-0.1,0.7-0.1,1c0,0.3,0,0.7-0.1,1.1c0,0.4-0.1,0.8-0.1,1.2l0,0c0.1-0.4,0.2-0.7,0.4-1.1
			c0.1-0.4,0.3-0.7,0.5-1c0.2-0.3,0.4-0.6,0.6-0.9c0.2-0.3,0.4-0.5,0.6-0.7c0.2-0.2,0.5-0.3,0.7-0.5c0.2-0.1,0.5-0.2,0.7-0.2
			c0.2,0,0.3,0,0.4,0.1c0.1,0.1,0.2,0.1,0.3,0.2c0.1,0.1,0.2,0.2,0.2,0.3c0.1,0.1,0.1,0.3,0.1,0.4c0,0.3-0.1,0.5-0.2,0.7
			c-0.1,0.2-0.3,0.5-0.5,0.7c-0.2,0.2-0.4,0.4-0.7,0.6c-0.3,0.2-0.6,0.4-0.9,0.5c0.2,0.4,0.4,0.7,0.5,1c0.2,0.3,0.3,0.5,0.4,0.7
			c0.1,0.2,0.3,0.3,0.4,0.4c0.1,0.1,0.2,0.2,0.3,0.2c0.1,0.1,0.2,0.1,0.3,0.1c0.1,0,0.2,0,0.2,0c0.2,0,0.3,0,0.5-0.1
			c0.2,0,0.3-0.1,0.5-0.2l0.1,0.2c-0.1,0.1-0.2,0.2-0.4,0.3c-0.2,0.1-0.3,0.2-0.5,0.3c-0.2,0.1-0.4,0.1-0.6,0.2
			c-0.2,0-0.3,0.1-0.5,0.1c-0.2,0-0.3-0.1-0.5-0.2c-0.2-0.1-0.3-0.3-0.5-0.6s-0.4-0.6-0.6-1C49.2,86,48.9,85.6,48.6,85L48.6,85z"/>
		<path class="st0" d="M55.1,81.5c-0.1,0.3-0.1,0.7-0.1,1c0,0.3-0.1,0.7-0.1,1c0,0.3,0,0.6-0.1,0.9c0,0.3,0,0.6,0,0.8
			c0,0.3,0,0.6,0,0.8c0,0.2,0,0.4,0,0.6c0,0.2,0,0.3,0.1,0.4c0,0.1,0.1,0.2,0.1,0.2c0,0.1,0.1,0.1,0.2,0.1s0.1,0,0.2,0
			c0.1,0,0.3,0,0.5-0.1c0.2,0,0.3-0.1,0.5-0.2l0.1,0.2c-0.1,0.1-0.2,0.2-0.4,0.3c-0.2,0.1-0.3,0.2-0.5,0.2c-0.2,0.1-0.4,0.1-0.5,0.2
			c-0.2,0-0.3,0.1-0.5,0.1c-0.1,0-0.2,0-0.2,0c-0.1,0-0.1,0-0.2-0.1c-0.1-0.1-0.1-0.1-0.2-0.2c0-0.1-0.1-0.3-0.1-0.4
			c0-0.2-0.1-0.4-0.1-0.7c0-0.3,0-0.6,0-1c0-0.2,0-0.5,0-0.8c0-0.3,0-0.6,0-0.9c0-0.3,0-0.7,0-1c0-0.4,0-0.7,0.1-1.1
			c0-0.1,0-0.2,0.1-0.2c0-0.1,0.1-0.1,0.1-0.1c0.1,0,0.1,0,0.2-0.1c0.1,0,0.1,0,0.2,0C54.8,81.4,55,81.4,55.1,81.5z M54.7,79.4
			c-0.1,0-0.2,0-0.3-0.1c-0.1,0-0.2-0.1-0.2-0.2c-0.1-0.1-0.1-0.2-0.1-0.2c0-0.1,0-0.2,0-0.3c0-0.1,0-0.3,0.1-0.4
			c0-0.1,0.1-0.2,0.2-0.3c0.1-0.1,0.2-0.1,0.2-0.2c0.1,0,0.2-0.1,0.3-0.1c0.1,0,0.2,0,0.3,0.1c0.1,0,0.2,0.1,0.2,0.2
			c0.1,0.1,0.1,0.1,0.1,0.2c0,0.1,0,0.2,0,0.3c0,0.1,0,0.2-0.1,0.3c0,0.1-0.1,0.2-0.2,0.3c-0.1,0.1-0.1,0.2-0.2,0.2
			C55,79.4,54.9,79.4,54.7,79.4z"/>
		<path class="st0" d="M57.8,82.7c0-0.1,0-0.2,0-0.3c0-0.1,0-0.2-0.1-0.2c0-0.1-0.1-0.1-0.1-0.1c-0.1,0-0.1,0-0.2,0
			c-0.1,0-0.2,0-0.4,0c-0.2,0-0.3,0.1-0.5,0.1l-0.1-0.3c0.2-0.1,0.4-0.1,0.6-0.2c0.2-0.1,0.4-0.1,0.5-0.2c0.2,0,0.3-0.1,0.4-0.1
			c0.1,0,0.2,0,0.3,0c0.2,0,0.3,0.1,0.4,0.2c0.1,0.1,0.1,0.3,0.1,0.5c0,0,0,0.1,0,0.2c0,0.1,0,0.3,0,0.4c0,0.2,0,0.4,0,0.6
			c0,0.2,0,0.5-0.1,0.7c0,0.2,0,0.5-0.1,0.8s-0.1,0.5-0.1,0.8l0,0c0.2-0.8,0.5-1.4,0.7-2c0.3-0.5,0.5-1,0.8-1.3
			c0.3-0.3,0.5-0.6,0.8-0.7c0.3-0.1,0.5-0.2,0.8-0.2c0.2,0,0.3,0,0.5,0.1c0.2,0.1,0.3,0.2,0.4,0.3c0.1,0.1,0.2,0.3,0.3,0.5
			C63,82.5,63,82.7,63,83c0,0.1,0,0.2,0,0.4c0,0.2,0,0.3,0,0.5c0,0.2,0,0.4-0.1,0.6c0,0.2,0,0.4-0.1,0.6c0,0.2,0,0.4,0,0.6
			c0,0.2,0,0.3,0,0.5c0,0.2,0,0.4,0,0.6c0,0.1,0.1,0.3,0.1,0.4c0,0.1,0.1,0.1,0.2,0.2c0.1,0,0.2,0,0.3,0c0.2,0,0.3,0,0.5-0.1
			c0.2,0,0.3-0.1,0.5-0.2l0.1,0.2c-0.1,0.1-0.2,0.2-0.4,0.3c-0.2,0.1-0.3,0.2-0.5,0.2C63.4,87.9,63.2,88,63,88
			c-0.2,0-0.3,0.1-0.5,0.1c-0.2,0-0.3,0-0.4-0.1c-0.1-0.1-0.2-0.2-0.2-0.4c0-0.2-0.1-0.3-0.1-0.5c0-0.2,0-0.4,0-0.7
			c0-0.3,0-0.6,0-0.9c0-0.3,0-0.6,0.1-0.9c0-0.3,0-0.5,0.1-0.7c0-0.2,0-0.4,0-0.5c0-0.4-0.1-0.6-0.2-0.8s-0.3-0.3-0.5-0.3
			c-0.2,0-0.4,0.1-0.6,0.2c-0.2,0.1-0.4,0.4-0.6,0.6c-0.2,0.3-0.4,0.6-0.6,0.9c-0.2,0.4-0.3,0.7-0.5,1.1c-0.1,0.4-0.3,0.8-0.4,1.3
			c-0.1,0.4-0.2,0.9-0.2,1.3l-1,0.1l-0.1,0c0-0.3,0-0.6,0.1-0.9c0-0.3,0-0.7,0.1-1c0-0.4,0-0.7,0-1c0-0.3,0-0.7,0-1
			c0-0.3,0-0.6,0-0.8C57.8,83,57.8,82.8,57.8,82.7z"/>
		<path class="st0" d="M69.8,82.2c0.2,0.2,0.3,0.4,0.3,0.7c0.1,0.2,0.1,0.5,0.1,0.7c0,0.2,0,0.5-0.1,0.7s-0.2,0.4-0.3,0.7
			c-0.1,0.2-0.3,0.4-0.4,0.6c-0.2,0.2-0.4,0.3-0.6,0.4c-0.2,0.1-0.4,0.2-0.7,0.3c-0.2,0.1-0.5,0.1-0.7,0.1c-0.1,0-0.1,0-0.2,0
			c-0.1,0-0.1,0-0.2,0c-0.1,0-0.2,0.1-0.3,0.1c-0.1,0-0.2,0.1-0.2,0.2c-0.1,0.1-0.1,0.1-0.2,0.2c0,0.1-0.1,0.1-0.1,0.2
			c0,0.1,0.1,0.2,0.2,0.3c0.1,0.1,0.2,0.2,0.4,0.2c0.2,0.1,0.4,0.1,0.6,0.2c0.2,0.1,0.5,0.1,0.7,0.2c0.2,0,0.5,0.1,0.7,0.1
			c0.2,0.1,0.4,0.1,0.6,0.2c0.2,0.1,0.4,0.1,0.6,0.2c0.2,0.1,0.3,0.2,0.4,0.3c0.1,0.1,0.2,0.3,0.3,0.4c0.1,0.2,0.1,0.3,0.1,0.6
			c0,0.3,0,0.5-0.1,0.8c-0.1,0.2-0.2,0.5-0.4,0.7c-0.2,0.2-0.4,0.4-0.6,0.6c-0.2,0.2-0.5,0.3-0.8,0.5c-0.3,0.1-0.6,0.2-0.9,0.3
			c-0.3,0.1-0.7,0.1-1,0.1c-0.2,0-0.4,0-0.6,0c-0.2,0-0.4-0.1-0.7-0.1c-0.2-0.1-0.4-0.1-0.6-0.2c-0.2-0.1-0.4-0.2-0.5-0.4
			c-0.1-0.1-0.3-0.3-0.4-0.5c-0.1-0.2-0.1-0.4-0.1-0.6c0-0.2,0-0.4,0.1-0.6c0.1-0.2,0.1-0.3,0.3-0.5c0.1-0.2,0.2-0.3,0.4-0.4
			c0.1-0.1,0.3-0.3,0.5-0.4c0.2-0.1,0.3-0.2,0.5-0.3c0.2-0.1,0.3-0.1,0.5-0.2l0,0c-0.1,0-0.2-0.1-0.3-0.2c-0.1-0.1-0.2-0.1-0.3-0.2
			c-0.1-0.1-0.2-0.2-0.2-0.3c-0.1-0.1-0.1-0.2-0.1-0.4c0-0.2,0-0.3,0.1-0.4c0.1-0.1,0.2-0.2,0.3-0.3c0.1-0.1,0.2-0.2,0.4-0.2
			c0.1-0.1,0.3-0.1,0.4-0.2c-0.2-0.1-0.4-0.2-0.6-0.4c-0.2-0.1-0.3-0.3-0.5-0.5c-0.1-0.2-0.2-0.4-0.3-0.6C65,84.5,65,84.3,65,84.1
			c0-0.4,0.1-0.8,0.2-1.1c0.2-0.3,0.4-0.6,0.6-0.9c0.3-0.2,0.6-0.4,0.9-0.6c0.3-0.1,0.7-0.2,1.1-0.2c0.1,0,0.3,0,0.4,0
			c0.1,0,0.2,0,0.3,0.1c0.1,0,0.2,0.1,0.3,0.1c0.1,0,0.2,0.1,0.2,0.1c0.1,0.1,0.2,0.1,0.3,0.2s0.2,0.1,0.4,0.1c0.1,0,0.2,0,0.4-0.1
			c0.1,0,0.2-0.1,0.3-0.2c0.1-0.1,0.2-0.2,0.2-0.3c0-0.1,0.1-0.2,0.1-0.4c0,0,0,0,0-0.1c0,0,0,0,0-0.1l0.1,0
			c0.2,0.1,0.4,0.2,0.5,0.4c0.1,0.1,0.2,0.3,0.2,0.4c0,0.1,0,0.2-0.1,0.3c0,0.1-0.1,0.2-0.2,0.2c-0.1,0.1-0.2,0.1-0.3,0.1
			c-0.1,0-0.2,0.1-0.4,0.1C70.3,82.3,70.1,82.3,69.8,82.2L69.8,82.2z M66.8,88.6c-0.2,0.1-0.4,0.1-0.6,0.3c-0.2,0.1-0.4,0.2-0.5,0.4
			c-0.1,0.2-0.3,0.3-0.4,0.5c-0.1,0.2-0.1,0.4-0.1,0.7c0,0.3,0.1,0.5,0.2,0.8c0.1,0.2,0.3,0.4,0.5,0.5c0.2,0.1,0.4,0.2,0.7,0.3
			s0.5,0.1,0.7,0.1c0.3,0,0.7-0.1,1-0.2c0.3-0.1,0.6-0.2,0.8-0.4c0.2-0.2,0.4-0.4,0.5-0.6s0.2-0.5,0.2-0.8c0-0.2,0-0.3-0.1-0.4
			c-0.1-0.1-0.2-0.2-0.3-0.3c-0.1-0.1-0.3-0.2-0.4-0.2c-0.2-0.1-0.3-0.1-0.5-0.2c-0.3-0.1-0.5-0.1-0.8-0.2
			C67.4,88.7,67.1,88.7,66.8,88.6z M67.7,85.8c0.2,0,0.3,0,0.4-0.1c0.1-0.1,0.2-0.1,0.4-0.2c0.1-0.1,0.2-0.2,0.3-0.3
			c0.1-0.1,0.1-0.3,0.2-0.4c0-0.1,0.1-0.3,0.1-0.4c0-0.1,0-0.3,0-0.4c0-0.2,0-0.3,0-0.5S69,83.1,68.9,83c-0.1-0.2-0.1-0.3-0.2-0.5
			c-0.1-0.1-0.2-0.3-0.3-0.4C68.3,82,68.2,82,68,81.9c-0.2-0.1-0.3-0.1-0.5-0.1c-0.2,0-0.3,0-0.5,0.1c-0.1,0.1-0.3,0.1-0.4,0.2
			c-0.1,0.1-0.2,0.2-0.3,0.3c-0.1,0.1-0.1,0.3-0.2,0.4c0,0.1-0.1,0.3-0.1,0.4c0,0.1,0,0.3,0,0.4c0,0.2,0,0.3,0,0.5
			c0,0.2,0.1,0.3,0.1,0.5c0.1,0.2,0.1,0.3,0.2,0.5c0.1,0.1,0.2,0.3,0.3,0.4c0.1,0.1,0.3,0.2,0.4,0.2C67.4,85.8,67.6,85.8,67.7,85.8z
			"/>
		<path class="st0" d="M78.4,85.3c0-0.3,0-0.6,0.1-0.9c0.1-0.3,0.2-0.6,0.3-0.9c0.1-0.3,0.3-0.6,0.5-0.8c0.2-0.3,0.4-0.5,0.6-0.7
			c0.2-0.2,0.5-0.3,0.8-0.5c0.3-0.1,0.6-0.2,1-0.2c0.4,0,0.7,0.1,1,0.2c0.3,0.2,0.5,0.4,0.8,0.6c0.2,0.3,0.4,0.6,0.5,0.9
			c0.1,0.3,0.2,0.7,0.2,1c0,0.3,0,0.6-0.1,0.9c-0.1,0.3-0.2,0.6-0.3,0.9c-0.1,0.3-0.3,0.6-0.5,0.8c-0.2,0.3-0.4,0.5-0.6,0.7
			c-0.2,0.2-0.5,0.3-0.8,0.5c-0.3,0.1-0.6,0.2-1,0.2c-0.4,0-0.7-0.1-1-0.2c-0.3-0.2-0.5-0.4-0.8-0.6c-0.2-0.3-0.4-0.6-0.5-0.9
			S78.4,85.6,78.4,85.3z M79.4,84.9c0,0.2,0,0.4,0,0.6c0,0.2,0.1,0.4,0.1,0.6c0.1,0.2,0.1,0.4,0.2,0.6c0.1,0.2,0.2,0.3,0.4,0.4
			c0.1,0.1,0.3,0.2,0.5,0.3c0.2,0.1,0.4,0.1,0.6,0.1c0.2,0,0.4,0,0.6-0.1c0.2-0.1,0.3-0.2,0.4-0.4c0.1-0.2,0.2-0.3,0.3-0.5
			c0.1-0.2,0.1-0.4,0.2-0.6c0-0.2,0.1-0.4,0.1-0.6c0-0.2,0-0.4,0-0.6c0-0.2,0-0.4,0-0.6c0-0.2-0.1-0.4-0.1-0.6
			c-0.1-0.2-0.1-0.4-0.2-0.6c-0.1-0.2-0.2-0.3-0.4-0.4c-0.1-0.1-0.3-0.2-0.5-0.3c-0.2-0.1-0.4-0.1-0.6-0.1c-0.2,0-0.4,0-0.6,0.1
			c-0.2,0.1-0.3,0.2-0.4,0.4c-0.1,0.2-0.2,0.3-0.3,0.5c-0.1,0.2-0.1,0.4-0.2,0.6c0,0.2-0.1,0.4-0.1,0.6
			C79.4,84.5,79.4,84.7,79.4,84.9z"/>
		<path class="st0" d="M87,81.7c0.2,0,0.3,0,0.4,0c0.1,0,0.3,0,0.4,0c0.1,0,0.2,0,0.3,0c0.1,0,0.2,0,0.3,0c0.1,0,0.3,0,0.4,0
			c0.1,0,0.2,0,0.3,0c0,0.1,0.1,0.2,0.1,0.3c0,0.1-0.1,0.2-0.2,0.3c-0.1,0-0.3,0.1-0.5,0.1c-0.2,0-0.4,0-0.7,0c-0.3,0-0.5,0-0.9-0.1
			c0,0.4,0,0.8,0,1.2s0,0.9-0.1,1.3s-0.1,0.9-0.1,1.4c0,0.5-0.1,0.9-0.2,1.4c-0.1,0.4-0.1,0.9-0.2,1.3c-0.1,0.4-0.2,0.8-0.3,1.1
			c-0.2,0.5-0.4,1-0.6,1.3c-0.2,0.3-0.5,0.6-0.7,0.8c-0.3,0.2-0.5,0.4-0.8,0.5c-0.3,0.1-0.5,0.1-0.8,0.1c-0.2,0-0.4,0-0.6-0.1
			c-0.2-0.1-0.4-0.1-0.5-0.2c-0.1-0.1-0.3-0.2-0.3-0.3c-0.1-0.1-0.1-0.2-0.1-0.4c0-0.1,0-0.1,0.1-0.2c0-0.1,0.1-0.1,0.1-0.2
			c0.1-0.1,0.1-0.1,0.2-0.1c0.1,0,0.2-0.1,0.3-0.1c0.1,0.2,0.2,0.3,0.3,0.4c0.1,0.1,0.2,0.2,0.3,0.3c0.1,0.1,0.2,0.1,0.4,0.2
			c0.1,0,0.3,0.1,0.4,0.1c0.3,0,0.6-0.1,0.9-0.3c0.2-0.2,0.4-0.5,0.6-1c0.2-0.4,0.3-0.9,0.4-1.5c0.1-0.6,0.2-1.2,0.2-2
			s0.1-1.5,0.1-2.3c0-0.8,0-1.7,0-2.6c-0.3,0-0.5,0-0.8,0c-0.2,0-0.4,0.1-0.6,0.1c0,0,0-0.1,0-0.1c0-0.1,0-0.1,0.1-0.2
			c0.1-0.1,0.2-0.1,0.3-0.2c0.1,0,0.3-0.1,0.5-0.1c0.2,0,0.4-0.1,0.6-0.1c0-0.3,0-0.6,0-0.8c0-0.3,0-0.5,0.1-0.8
			c0-0.3,0.1-0.5,0.1-0.8c0-0.3,0.1-0.5,0.2-0.8c0.1-0.4,0.2-0.7,0.3-1c0.1-0.3,0.3-0.5,0.4-0.8c0.2-0.2,0.3-0.4,0.5-0.6
			c0.2-0.2,0.4-0.3,0.6-0.4c0.2-0.1,0.4-0.2,0.6-0.2c0.2,0,0.4-0.1,0.6-0.1c0.3,0,0.6,0,0.8,0.1s0.4,0.2,0.6,0.3
			c0.2,0.1,0.3,0.3,0.4,0.4c0.1,0.2,0.1,0.3,0.1,0.5c0,0.1,0,0.2-0.1,0.3c0,0.1-0.1,0.2-0.2,0.3c-0.1,0.1-0.2,0.1-0.2,0.2
			c-0.1,0-0.2,0.1-0.3,0.1c-0.1,0-0.3,0-0.4-0.1l0-0.1c0.1-0.1,0.1-0.3,0.1-0.4c0-0.1,0-0.2,0-0.3c0-0.1,0-0.3-0.1-0.4
			c-0.1-0.1-0.1-0.2-0.2-0.3c-0.1-0.1-0.2-0.1-0.3-0.1c-0.1,0-0.2,0-0.3,0c-0.3,0-0.6,0.1-0.9,0.2c-0.2,0.2-0.4,0.4-0.6,0.6
			c-0.2,0.3-0.3,0.6-0.4,0.9c-0.1,0.4-0.2,0.7-0.2,1.2c0,0.4-0.1,0.8-0.1,1.3C87,80.8,87,81.2,87,81.7z"/>
		<path class="st0" d="M96.5,83.2c0.1-0.2,0.1-0.3,0.1-0.5c0-0.1,0-0.2-0.1-0.3c0-0.1-0.1-0.2-0.2-0.3c-0.1-0.1-0.2-0.1-0.3-0.2
			c-0.1,0-0.3-0.1-0.4-0.1c-0.2,0-0.4,0-0.6,0.1c-0.2,0.1-0.4,0.2-0.5,0.3c-0.1,0.1-0.3,0.3-0.4,0.5c-0.1,0.2-0.2,0.4-0.2,0.6
			c-0.1,0.2-0.1,0.4-0.1,0.7c0,0.2,0,0.5,0,0.7c0,0.4,0.1,0.7,0.2,1.1c0.1,0.3,0.2,0.6,0.4,0.8c0.2,0.2,0.4,0.4,0.6,0.5
			c0.2,0.1,0.5,0.2,0.7,0.2c0.3,0,0.6-0.1,0.8-0.2c0.3-0.1,0.6-0.4,0.8-0.7c0,0,0,0,0.1,0c0,0,0.1,0,0.1,0.1c0,0,0,0,0.1,0.1
			c0,0,0,0,0,0.1c0,0,0,0,0,0l0,0c-0.3,0.5-0.6,0.8-1.1,1.1c-0.4,0.2-0.9,0.4-1.4,0.4c-0.3,0-0.5,0-0.7-0.1
			c-0.2-0.1-0.4-0.2-0.6-0.3c-0.2-0.1-0.3-0.3-0.5-0.5c-0.1-0.2-0.3-0.4-0.3-0.6c-0.1-0.2-0.2-0.4-0.2-0.7c0-0.2-0.1-0.5-0.1-0.7
			c0-0.3,0-0.6,0.1-1c0.1-0.3,0.2-0.6,0.3-0.9c0.1-0.3,0.3-0.6,0.5-0.8c0.2-0.3,0.4-0.5,0.7-0.7c0.2-0.2,0.5-0.3,0.8-0.4
			s0.6-0.2,0.9-0.2c0.2,0,0.5,0,0.7,0.1c0.2,0.1,0.4,0.1,0.6,0.3c0.2,0.1,0.3,0.2,0.4,0.4c0.1,0.2,0.1,0.3,0.1,0.5
			c0,0.1,0,0.2-0.1,0.3c0,0.1-0.1,0.2-0.2,0.2c-0.1,0.1-0.1,0.1-0.2,0.2c-0.1,0-0.2,0.1-0.3,0.1c-0.1,0-0.1,0-0.2,0
			C96.7,83.3,96.6,83.3,96.5,83.2L96.5,83.2z"/>
		<path class="st0" d="M102.2,83.2c0-0.2,0-0.4-0.1-0.6c-0.1-0.2-0.2-0.3-0.3-0.4c-0.1-0.1-0.3-0.2-0.4-0.3
			c-0.2-0.1-0.3-0.1-0.5-0.1c-0.2,0-0.4,0-0.5,0.1c-0.1,0-0.3,0.1-0.4,0.2s-0.2,0.2-0.2,0.3c0,0.1-0.1,0.2-0.1,0.3
			c0,0.1,0,0.3,0.1,0.4c0.1,0.1,0.1,0.3,0.2,0.4l0,0.1c-0.2,0.1-0.3,0.1-0.5,0.1c-0.1,0-0.2,0-0.3,0c-0.1,0-0.2-0.1-0.2-0.1
			c-0.1-0.1-0.1-0.1-0.2-0.2c0-0.1-0.1-0.2-0.1-0.3c0-0.2,0-0.3,0.1-0.5c0.1-0.2,0.2-0.3,0.3-0.4c0.1-0.1,0.3-0.2,0.5-0.4
			c0.2-0.1,0.4-0.2,0.6-0.3c0.2-0.1,0.4-0.1,0.6-0.2c0.2,0,0.4-0.1,0.6-0.1c0.3,0,0.6,0,0.8,0.1c0.2,0.1,0.4,0.2,0.6,0.4
			c0.1,0.2,0.2,0.4,0.3,0.6c0.1,0.2,0.1,0.5,0.1,0.8c0,0.2,0,0.4,0,0.7c0,0.2,0,0.5-0.1,0.8c0,0.3,0,0.5-0.1,0.8c0,0.3,0,0.6,0,0.8
			c0,0.4,0.1,0.8,0.2,1c0.2,0.2,0.4,0.3,0.6,0.3c0.2,0,0.5-0.1,0.8-0.3l0.1,0.2c-0.2,0.2-0.4,0.4-0.7,0.5c-0.2,0.1-0.5,0.2-0.8,0.2
			c-0.2,0-0.4,0-0.5-0.1c-0.2-0.1-0.3-0.2-0.4-0.3c-0.1-0.1-0.2-0.3-0.3-0.5c-0.1-0.2-0.1-0.4-0.1-0.7c0-0.1,0-0.2,0-0.2
			c0-0.1,0-0.2,0-0.3h0c-0.1,0.3-0.3,0.5-0.5,0.8s-0.4,0.5-0.6,0.7c-0.2,0.2-0.4,0.4-0.7,0.5c-0.2,0.1-0.5,0.2-0.7,0.2
			c-0.2,0-0.4,0-0.6-0.1c-0.2-0.1-0.3-0.2-0.4-0.3c-0.1-0.1-0.2-0.3-0.3-0.5c-0.1-0.2-0.1-0.4-0.1-0.6c0-0.3,0-0.5,0.1-0.7
			c0.1-0.2,0.2-0.4,0.4-0.6c0.2-0.2,0.4-0.3,0.6-0.4c0.2-0.1,0.5-0.2,0.8-0.3c0.3-0.1,0.6-0.1,0.9-0.2c0.3,0,0.6-0.1,1-0.1
			c0-0.2,0-0.4,0.1-0.6C102.2,83.6,102.2,83.4,102.2,83.2z M99.4,86.3c0,0.1,0,0.2,0,0.3c0,0.1,0.1,0.2,0.1,0.3
			c0.1,0.1,0.1,0.1,0.2,0.2c0.1,0,0.2,0.1,0.3,0.1c0.1,0,0.3,0,0.4-0.1c0.1-0.1,0.3-0.2,0.4-0.3c0.1-0.1,0.3-0.2,0.4-0.4
			c0.1-0.2,0.2-0.3,0.3-0.5c0.1-0.2,0.2-0.4,0.3-0.6c0.1-0.2,0.1-0.4,0.1-0.6c-0.2,0-0.4,0-0.7,0c-0.2,0-0.4,0.1-0.6,0.1
			c-0.2,0-0.4,0.1-0.6,0.2c-0.2,0.1-0.3,0.2-0.4,0.3c-0.1,0.1-0.2,0.3-0.3,0.4C99.5,86,99.4,86.1,99.4,86.3z"/>
		<path class="st0" d="M105.9,82.7c0-0.1,0-0.2,0-0.3c0-0.1,0-0.2-0.1-0.2c0-0.1-0.1-0.1-0.1-0.1c-0.1,0-0.1,0-0.2,0
			c-0.1,0-0.2,0-0.4,0c-0.2,0-0.3,0.1-0.5,0.1l-0.1-0.3c0.2-0.1,0.4-0.1,0.6-0.2c0.2-0.1,0.4-0.1,0.5-0.2c0.2,0,0.3-0.1,0.4-0.1
			c0.1,0,0.2,0,0.3,0c0.2,0,0.3,0.1,0.4,0.2c0.1,0.1,0.1,0.3,0.1,0.5c0,0,0,0.1,0,0.2c0,0.1,0,0.3,0,0.4c0,0.2,0,0.4,0,0.6
			c0,0.2,0,0.5-0.1,0.7c0,0.2,0,0.5-0.1,0.8c0,0.3-0.1,0.5-0.1,0.8l0,0c0.2-0.8,0.5-1.4,0.7-2c0.3-0.5,0.5-1,0.8-1.3
			c0.3-0.3,0.5-0.6,0.8-0.7c0.3-0.1,0.5-0.2,0.8-0.2c0.2,0,0.3,0,0.5,0.1c0.2,0.1,0.3,0.2,0.4,0.3c0.1,0.1,0.2,0.3,0.3,0.5
			c0.1,0.2,0.1,0.5,0.1,0.8c0,0.1,0,0.2,0,0.4c0,0.2,0,0.3,0,0.5c0,0.2,0,0.4-0.1,0.6c0,0.2,0,0.4-0.1,0.6c0,0.2,0,0.4,0,0.6
			c0,0.2,0,0.3,0,0.5c0,0.2,0,0.4,0,0.6c0,0.1,0.1,0.3,0.1,0.4c0,0.1,0.1,0.1,0.2,0.2c0.1,0,0.2,0,0.3,0c0.2,0,0.3,0,0.5-0.1
			s0.3-0.1,0.5-0.2l0.1,0.2c-0.1,0.1-0.2,0.2-0.4,0.3c-0.2,0.1-0.3,0.2-0.5,0.2c-0.2,0.1-0.4,0.1-0.5,0.2c-0.2,0-0.3,0.1-0.5,0.1
			c-0.2,0-0.3,0-0.4-0.1c-0.1-0.1-0.2-0.2-0.2-0.4c0-0.2-0.1-0.3-0.1-0.5c0-0.2,0-0.4,0-0.7c0-0.3,0-0.6,0-0.9c0-0.3,0-0.6,0.1-0.9
			c0-0.3,0-0.5,0.1-0.7c0-0.2,0-0.4,0-0.5c0-0.4-0.1-0.6-0.2-0.8c-0.1-0.2-0.3-0.3-0.5-0.3c-0.2,0-0.4,0.1-0.6,0.2
			c-0.2,0.1-0.4,0.4-0.6,0.6c-0.2,0.3-0.4,0.6-0.6,0.9c-0.2,0.4-0.3,0.7-0.5,1.1c-0.1,0.4-0.3,0.8-0.4,1.3c-0.1,0.4-0.2,0.9-0.2,1.3
			l-0.9,0.1l-0.1,0c0-0.3,0-0.6,0.1-0.9c0-0.3,0-0.7,0.1-1c0-0.4,0-0.7,0-1c0-0.3,0-0.7,0-1c0-0.3,0-0.6,0-0.8
			C105.9,83,105.9,82.8,105.9,82.7z"/>
		<path class="st0" d="M119.7,75.7c-0.1,0.8-0.2,1.6-0.3,2.4c-0.1,0.8-0.2,1.6-0.3,2.4c-0.1,0.8-0.1,1.6-0.2,2.4
			c0,0.8-0.1,1.5-0.1,2.2c0,0.3,0,0.6,0,0.9c0,0.2,0,0.5,0,0.6c0,0.2,0,0.3,0.1,0.4s0.1,0.2,0.1,0.2c0,0.1,0.1,0.1,0.2,0.1
			c0.1,0,0.1,0,0.2,0c0.1,0,0.3,0,0.5-0.1c0.2,0,0.3-0.1,0.5-0.2l0.1,0.2c-0.1,0.1-0.2,0.2-0.4,0.3c-0.2,0.1-0.3,0.2-0.5,0.2
			c-0.2,0.1-0.4,0.1-0.5,0.2c-0.2,0-0.3,0.1-0.5,0.1c-0.1,0-0.2,0-0.2,0c-0.1,0-0.1-0.1-0.2-0.1c-0.1-0.1-0.1-0.1-0.1-0.2
			c0-0.1-0.1-0.2-0.1-0.3c0-0.2,0-0.4-0.1-0.6c0-0.2,0-0.5,0-0.8c0-0.3,0-0.6,0-0.9c0-0.3,0.1-0.6,0.1-0.9l0,0
			c-0.2,0.6-0.5,1.2-0.8,1.7c-0.3,0.5-0.6,0.9-0.8,1.3c-0.3,0.4-0.6,0.6-0.9,0.8c-0.3,0.2-0.6,0.3-0.8,0.3c-0.3,0-0.5-0.1-0.7-0.2
			c-0.2-0.1-0.4-0.3-0.5-0.5c-0.1-0.2-0.2-0.5-0.3-0.8c-0.1-0.3-0.1-0.6-0.1-0.9c0-0.4,0-0.7,0.1-1.1c0.1-0.4,0.2-0.7,0.4-1
			c0.2-0.3,0.3-0.6,0.6-0.9c0.2-0.3,0.5-0.5,0.7-0.7s0.6-0.4,0.9-0.5c0.3-0.1,0.6-0.2,1-0.2c0.2,0,0.5,0,0.7,0.1
			c0.2,0.1,0.5,0.2,0.7,0.3c0-0.5,0-1,0.1-1.6c0-0.5,0.1-1,0.1-1.6c0-0.5,0.1-1,0.1-1.4c0-0.4,0.1-0.8,0.1-1.2c0-0.1,0-0.1,0.1-0.2
			c0-0.1,0.1-0.1,0.2-0.1c0.1,0,0.1-0.1,0.2-0.1c0.1,0,0.2,0,0.2,0C119.3,75.6,119.5,75.6,119.7,75.7z M118,82.1
			c-0.4-0.2-0.8-0.3-1.2-0.3c-0.3,0-0.6,0-0.8,0.1c-0.2,0.1-0.5,0.2-0.7,0.4c-0.2,0.2-0.4,0.4-0.5,0.6c-0.1,0.2-0.3,0.5-0.4,0.7
			c-0.1,0.3-0.2,0.5-0.2,0.8c-0.1,0.3-0.1,0.6-0.1,0.8c0,0.1,0,0.2,0,0.3c0,0.1,0,0.3,0.1,0.4c0,0.1,0.1,0.3,0.1,0.4
			c0,0.1,0.1,0.2,0.2,0.3c0.1,0.1,0.1,0.2,0.2,0.2c0.1,0.1,0.2,0.1,0.3,0.1c0.2,0,0.4-0.1,0.7-0.2c0.2-0.2,0.5-0.4,0.7-0.6
			c0.2-0.3,0.4-0.6,0.6-0.9c0.2-0.3,0.4-0.7,0.5-1.1c0.2-0.4,0.3-0.7,0.4-1.1C118,82.7,118,82.4,118,82.1z"/>
		<path class="st0" d="M122.8,87.9c-0.1-0.3-0.2-0.6-0.3-0.9c-0.1-0.3-0.2-0.6-0.3-1s-0.2-0.6-0.3-0.9s-0.2-0.6-0.3-0.9
			s-0.2-0.5-0.2-0.8s-0.1-0.4-0.2-0.6c-0.1-0.2-0.1-0.3-0.2-0.4c-0.1-0.1-0.1-0.2-0.2-0.3c-0.1-0.1-0.1-0.1-0.2-0.1
			c-0.1,0-0.1,0-0.2,0c-0.1,0-0.2,0-0.3,0c-0.1,0-0.2,0.1-0.4,0.1l-0.1-0.3c0.2-0.1,0.4-0.1,0.5-0.2c0.2-0.1,0.3-0.1,0.5-0.1
			c0.1,0,0.3-0.1,0.4-0.1c0.1,0,0.2,0,0.3,0c0.1,0,0.2,0,0.2,0c0.1,0,0.1,0.1,0.2,0.1c0.1,0.1,0.1,0.2,0.2,0.3
			c0.1,0.1,0.1,0.3,0.2,0.5c0,0.1,0.1,0.3,0.2,0.4c0.1,0.2,0.1,0.4,0.2,0.6c0.1,0.2,0.1,0.5,0.2,0.7c0.1,0.3,0.2,0.6,0.2,0.8
			c0.1,0.3,0.2,0.6,0.2,0.9c0.1,0.3,0.2,0.6,0.2,0.9c0.2-0.4,0.3-0.8,0.5-1.2c0.2-0.4,0.3-0.9,0.5-1.3c0.2-0.4,0.3-0.9,0.5-1.3
			c0.2-0.4,0.3-0.8,0.5-1.2c0-0.1,0.1-0.1,0.1-0.2c0,0,0.1-0.1,0.2-0.1c0.1,0,0.1,0,0.2-0.1c0.1,0,0.1,0,0.2,0c0.1,0,0.2,0,0.3,0
			c0.1,0,0.2,0.1,0.3,0.1c-0.1,0.2-0.3,0.5-0.4,0.7c-0.1,0.3-0.3,0.6-0.5,0.9c-0.2,0.3-0.3,0.6-0.5,1c-0.2,0.3-0.3,0.7-0.5,1
			c-0.2,0.3-0.3,0.7-0.5,1c-0.2,0.4-0.3,0.7-0.4,1c-0.1,0.3-0.3,0.7-0.4,1c-0.1,0.3-0.3,0.7-0.4,1c-0.1,0.3-0.2,0.6-0.4,0.9
			c-0.1,0.3-0.2,0.6-0.4,0.8c-0.1,0.2-0.2,0.5-0.4,0.7c-0.1,0.2-0.3,0.4-0.4,0.5c-0.2,0.1-0.3,0.3-0.5,0.3c-0.2,0.1-0.4,0.1-0.6,0.1
			c-0.1,0-0.3,0-0.4-0.1c-0.1,0-0.2-0.1-0.3-0.2c-0.1-0.1-0.1-0.1-0.2-0.2c0-0.1-0.1-0.2-0.1-0.3c0-0.1,0-0.2,0.1-0.3
			c0.1-0.1,0.1-0.2,0.2-0.2c0.1,0.1,0.3,0.1,0.4,0.2c0.1,0,0.2,0.1,0.4,0.1c0.2,0,0.5-0.1,0.7-0.2c0.2-0.1,0.4-0.3,0.5-0.6
			c0.2-0.3,0.3-0.6,0.5-1c0.2-0.4,0.4-0.9,0.6-1.4l0.1-0.2L122.8,87.9z"/>
		<path class="st0" d="M134.7,88c-0.1-0.6-0.2-1.2-0.3-1.8c-0.1-0.6-0.3-1.2-0.4-1.9c-0.1,0.2-0.2,0.4-0.3,0.6
			c-0.1,0.2-0.2,0.4-0.3,0.7s-0.2,0.4-0.4,0.7c-0.1,0.2-0.3,0.4-0.4,0.7c-0.1,0.2-0.3,0.4-0.4,0.6c-0.1,0.2-0.2,0.4-0.4,0.5
			l-0.5-0.1c0-0.3-0.1-0.6-0.1-0.9c-0.1-0.3-0.1-0.6-0.2-1c-0.1-0.3-0.1-0.6-0.2-1c-0.1-0.3-0.1-0.6-0.2-0.9
			c-0.1-0.3-0.1-0.5-0.2-0.8c-0.1-0.2-0.1-0.4-0.2-0.6c-0.1-0.2-0.1-0.4-0.2-0.5c-0.1-0.1-0.1-0.2-0.2-0.3c-0.1-0.1-0.1-0.1-0.2-0.1
			c-0.1,0-0.1,0-0.2,0c-0.1,0-0.2,0-0.3,0c-0.1,0-0.2,0.1-0.4,0.1l-0.1-0.3c0.4-0.1,0.8-0.3,1.1-0.3c0.3-0.1,0.5-0.1,0.6-0.1
			c0.1,0,0.1,0,0.2,0c0.1,0,0.1,0.1,0.2,0.1c0.1,0.1,0.1,0.2,0.2,0.3c0.1,0.1,0.1,0.3,0.2,0.4c0,0.1,0.1,0.3,0.1,0.5
			c0.1,0.2,0.1,0.4,0.2,0.6c0.1,0.2,0.1,0.5,0.2,0.8c0.1,0.3,0.1,0.6,0.2,0.9s0.1,0.6,0.2,0.9c0.1,0.3,0.1,0.6,0.1,0.9
			c0.1-0.1,0.1-0.2,0.2-0.4c0.1-0.2,0.2-0.3,0.3-0.5c0.1-0.2,0.2-0.4,0.3-0.5c0.1-0.2,0.2-0.4,0.3-0.5c0.1-0.2,0.2-0.3,0.2-0.5
			c0.1-0.2,0.1-0.3,0.1-0.4c0-0.1,0-0.1,0-0.2c0-0.1,0-0.1,0-0.2c0-0.1,0-0.2,0-0.3s0-0.2,0-0.3c0-0.1,0-0.2-0.1-0.3
			c0-0.1,0-0.2-0.1-0.3c0-0.1,0-0.1,0-0.2c0-0.1,0-0.2,0.1-0.2c0.1-0.1,0.2-0.1,0.3-0.1c0.1,0,0.2,0,0.3,0c0.1,0,0.2,0.1,0.3,0.1
			c0.1,0.4,0.2,0.8,0.3,1.2c0.1,0.4,0.2,0.8,0.3,1.3c0.1,0.4,0.2,0.8,0.3,1.3c0.1,0.4,0.2,0.8,0.2,1.2c0.2-0.3,0.4-0.7,0.6-1
			c0.2-0.4,0.4-0.7,0.5-1.1c0.2-0.3,0.3-0.7,0.4-1c0.1-0.3,0.1-0.7,0.1-1c0-0.1,0-0.3,0-0.4c0-0.1,0-0.3-0.1-0.4
			c0-0.1-0.1-0.2-0.2-0.3c-0.1-0.1-0.2-0.2-0.3-0.3l0.1-0.1c0.1,0,0.1,0,0.2,0c0.1,0,0.1,0,0.2,0c0.4,0,0.7,0.1,0.9,0.3
			c0.2,0.2,0.3,0.5,0.3,0.8c0,0.3-0.1,0.5-0.2,0.9c-0.1,0.3-0.2,0.7-0.4,1c-0.2,0.4-0.4,0.7-0.6,1.1c-0.2,0.4-0.4,0.7-0.7,1.1
			c-0.2,0.3-0.4,0.7-0.7,1c-0.2,0.3-0.4,0.6-0.6,0.8L134.7,88z"/>
		<path class="st0" d="M138.8,85.3c0-0.3,0-0.6,0.1-0.9c0.1-0.3,0.2-0.6,0.3-0.9s0.3-0.6,0.5-0.8c0.2-0.3,0.4-0.5,0.6-0.7
			c0.2-0.2,0.5-0.3,0.8-0.5c0.3-0.1,0.6-0.2,1-0.2c0.4,0,0.7,0.1,1,0.2c0.3,0.2,0.5,0.4,0.8,0.6c0.2,0.3,0.4,0.6,0.5,0.9
			c0.1,0.3,0.2,0.7,0.2,1c0,0.3,0,0.6-0.1,0.9c-0.1,0.3-0.2,0.6-0.3,0.9c-0.1,0.3-0.3,0.6-0.5,0.8c-0.2,0.3-0.4,0.5-0.6,0.7
			c-0.2,0.2-0.5,0.3-0.8,0.5c-0.3,0.1-0.6,0.2-1,0.2c-0.4,0-0.7-0.1-1-0.2c-0.3-0.2-0.5-0.4-0.7-0.6c-0.2-0.3-0.4-0.6-0.5-0.9
			C138.9,86,138.8,85.6,138.8,85.3z M139.9,84.9c0,0.2,0,0.4,0,0.6c0,0.2,0.1,0.4,0.1,0.6c0.1,0.2,0.1,0.4,0.2,0.6
			c0.1,0.2,0.2,0.3,0.4,0.4c0.1,0.1,0.3,0.2,0.5,0.3c0.2,0.1,0.4,0.1,0.6,0.1c0.2,0,0.4,0,0.6-0.1c0.2-0.1,0.3-0.2,0.4-0.4
			c0.1-0.2,0.2-0.3,0.3-0.5c0.1-0.2,0.1-0.4,0.2-0.6c0-0.2,0.1-0.4,0.1-0.6c0-0.2,0-0.4,0-0.6c0-0.2,0-0.4,0-0.6
			c0-0.2-0.1-0.4-0.1-0.6c-0.1-0.2-0.1-0.4-0.2-0.6c-0.1-0.2-0.2-0.3-0.3-0.4c-0.1-0.1-0.3-0.2-0.5-0.3c-0.2-0.1-0.4-0.1-0.6-0.1
			c-0.2,0-0.4,0-0.6,0.1c-0.2,0.1-0.3,0.2-0.4,0.4c-0.1,0.2-0.2,0.3-0.3,0.5c-0.1,0.2-0.1,0.4-0.2,0.6c0,0.2-0.1,0.4-0.1,0.6
			C139.9,84.5,139.9,84.7,139.9,84.9z"/>
		<path class="st0" d="M146.2,88L146.2,88c0-0.3,0-0.6,0-0.9c0-0.3,0-0.7,0.1-1c0-0.4,0-0.7,0-1c0-0.3,0-0.7,0-1c0-0.3,0-0.6,0-0.8
			c0-0.2,0-0.4,0-0.6c0-0.1,0-0.2,0-0.3c0-0.1,0-0.2-0.1-0.2c0-0.1-0.1-0.1-0.1-0.1c-0.1,0-0.1,0-0.2,0c-0.1,0-0.1,0-0.2,0
			c-0.1,0-0.1,0-0.2,0c-0.1,0-0.1,0-0.2,0c-0.1,0-0.2,0-0.3,0.1l-0.1-0.3c0.5-0.2,0.9-0.3,1.2-0.4c0.3-0.1,0.5-0.1,0.6-0.1
			c0.2,0,0.3,0.1,0.4,0.2s0.1,0.3,0.1,0.5c0,0,0,0.1,0,0.2c0,0.1,0,0.2,0,0.4c0,0.2,0,0.4,0,0.6c0,0.2,0,0.5-0.1,0.7
			c0,0.3,0,0.5-0.1,0.8c0,0.3-0.1,0.5-0.1,0.8l0,0c0.1-0.6,0.3-1.1,0.5-1.7c0.2-0.5,0.4-1,0.6-1.3c0.2-0.4,0.5-0.7,0.8-0.9
			c0.3-0.2,0.6-0.3,0.9-0.3c0.1,0,0.2,0,0.3,0.1c0.1,0,0.2,0.1,0.3,0.2c0.1,0.1,0.1,0.1,0.2,0.2c0,0.1,0.1,0.2,0.1,0.3
			c0,0.1,0,0.3-0.1,0.4c-0.1,0.1-0.2,0.2-0.3,0.3h0c-0.1-0.1-0.2-0.2-0.4-0.2c-0.1,0-0.2-0.1-0.4-0.1c-0.1,0-0.3,0-0.4,0.1
			c-0.1,0.1-0.2,0.1-0.4,0.2c-0.2,0.2-0.3,0.4-0.5,0.6c-0.1,0.3-0.3,0.5-0.4,0.9c-0.1,0.3-0.2,0.6-0.3,1c-0.1,0.3-0.2,0.7-0.3,1
			c-0.1,0.3-0.1,0.6-0.2,0.9c0,0.3-0.1,0.5-0.1,0.7L146.2,88z"/>
		<path class="st0" d="M153.2,75.7c-0.1,0.5-0.1,1-0.2,1.6c-0.1,0.5-0.1,1.1-0.2,1.6c-0.1,0.6-0.1,1.1-0.1,1.7
			c0,0.6-0.1,1.1-0.1,1.6c0,0.5-0.1,1.1-0.1,1.6c0,0.5,0,1,0,1.5c0,0.3,0,0.6,0,0.8c0,0.2,0,0.4,0,0.5c0,0.1,0,0.3,0.1,0.4
			c0,0.1,0.1,0.2,0.1,0.2c0,0,0.1,0.1,0.2,0.1s0.1,0,0.2,0c0.1,0,0.3,0,0.5-0.1c0.2,0,0.3-0.1,0.5-0.2l0.1,0.2
			c-0.1,0.1-0.2,0.2-0.4,0.3c-0.2,0.1-0.3,0.2-0.5,0.2c-0.2,0.1-0.4,0.1-0.5,0.2c-0.2,0-0.3,0.1-0.5,0.1c-0.2,0-0.3,0-0.4-0.1
			c-0.1-0.1-0.2-0.2-0.2-0.4c-0.1-0.2-0.1-0.4-0.1-0.7c0-0.3,0-0.7,0-1.1c0-0.2,0-0.4,0-0.7c0-0.3,0-0.6,0-1c0-0.4,0-0.8,0.1-1.3
			c0-0.5,0-0.9,0.1-1.4c0-0.5,0.1-1,0.1-1.5c0-0.5,0.1-1,0.1-1.5c0-0.5,0.1-0.9,0.1-1.3c0-0.4,0-0.8,0.1-1.1c0-0.1,0-0.1,0.1-0.2
			c0-0.1,0.1-0.1,0.2-0.1c0.1,0,0.1-0.1,0.2-0.1c0.1,0,0.2,0,0.2,0C152.8,75.6,153,75.6,153.2,75.7z"/>
		<path class="st0" d="M161.2,75.7c-0.1,0.8-0.2,1.6-0.3,2.4c-0.1,0.8-0.2,1.6-0.3,2.4c-0.1,0.8-0.1,1.6-0.2,2.4
			c0,0.8-0.1,1.5-0.1,2.2c0,0.3,0,0.6,0,0.9c0,0.2,0,0.5,0,0.6c0,0.2,0,0.3,0.1,0.4s0.1,0.2,0.1,0.2c0,0.1,0.1,0.1,0.2,0.1
			c0.1,0,0.1,0,0.2,0c0.1,0,0.3,0,0.5-0.1c0.2,0,0.3-0.1,0.5-0.2l0.1,0.2c-0.1,0.1-0.2,0.2-0.4,0.3c-0.2,0.1-0.3,0.2-0.5,0.2
			c-0.2,0.1-0.4,0.1-0.5,0.2c-0.2,0-0.3,0.1-0.5,0.1c-0.1,0-0.2,0-0.2,0c-0.1,0-0.1-0.1-0.2-0.1c-0.1-0.1-0.1-0.1-0.1-0.2
			c0-0.1-0.1-0.2-0.1-0.3c0-0.2,0-0.4-0.1-0.6c0-0.2,0-0.5,0-0.8c0-0.3,0-0.6,0-0.9c0-0.3,0.1-0.6,0.1-0.9l0,0
			c-0.2,0.6-0.5,1.2-0.8,1.7c-0.3,0.5-0.6,0.9-0.8,1.3c-0.3,0.4-0.6,0.6-0.9,0.8c-0.3,0.2-0.6,0.3-0.8,0.3c-0.3,0-0.5-0.1-0.7-0.2
			c-0.2-0.1-0.4-0.3-0.5-0.5c-0.1-0.2-0.2-0.5-0.3-0.8c-0.1-0.3-0.1-0.6-0.1-0.9c0-0.4,0-0.7,0.1-1.1c0.1-0.4,0.2-0.7,0.4-1
			c0.2-0.3,0.3-0.6,0.6-0.9c0.2-0.3,0.5-0.5,0.7-0.7c0.3-0.2,0.6-0.4,0.9-0.5c0.3-0.1,0.6-0.2,1-0.2c0.2,0,0.5,0,0.7,0.1
			c0.2,0.1,0.5,0.2,0.7,0.3c0-0.5,0-1,0.1-1.6c0-0.5,0.1-1,0.1-1.6c0-0.5,0.1-1,0.1-1.4c0-0.4,0.1-0.8,0.1-1.2c0-0.1,0-0.1,0.1-0.2
			c0-0.1,0.1-0.1,0.2-0.1c0.1,0,0.1-0.1,0.2-0.1c0.1,0,0.2,0,0.2,0C160.8,75.6,161,75.6,161.2,75.7z M159.5,82.1
			c-0.4-0.2-0.8-0.3-1.2-0.3c-0.3,0-0.6,0-0.8,0.1c-0.2,0.1-0.5,0.2-0.7,0.4c-0.2,0.2-0.4,0.4-0.5,0.6c-0.1,0.2-0.3,0.5-0.4,0.7
			c-0.1,0.3-0.2,0.5-0.2,0.8c-0.1,0.3-0.1,0.6-0.1,0.8c0,0.1,0,0.2,0,0.3c0,0.1,0,0.3,0.1,0.4c0,0.1,0.1,0.3,0.1,0.4
			c0,0.1,0.1,0.2,0.2,0.3c0.1,0.1,0.1,0.2,0.2,0.2c0.1,0.1,0.2,0.1,0.3,0.1c0.2,0,0.4-0.1,0.7-0.2c0.2-0.2,0.5-0.4,0.7-0.6
			c0.2-0.3,0.4-0.6,0.6-0.9c0.2-0.3,0.4-0.7,0.5-1.1c0.2-0.4,0.3-0.7,0.4-1.1C159.5,82.7,159.5,82.4,159.5,82.1z"/>
	</g>
	<g>
		<g id="Layer_1_17_">
			<g>
				<g>
					<g>
						<path class="st0" d="M121,15.7c-2.2,1.6-5.3,3.7-6.7,3.7c-0.3,0-0.4-0.1-0.4-0.2c-0.6-0.7-0.4-3.2,0.5-7.3
							c0.1-0.4-0.1-0.8-0.5-1c-0.4-0.2-0.8,0-1.1,0.3c-3,4.5-4.4,5.4-5,5.4c-0.9,0-1.8-2.6-2.7-7.6c-0.1-0.4-0.4-0.7-0.8-0.7v0
							c0,0,0,0,0,0c0,0,0,0,0,0v0c-0.4,0-0.7,0.3-0.8,0.7c-0.9,5-1.8,7.6-2.7,7.6c-0.6,0-2-0.9-5-5.4c-0.2-0.3-0.7-0.5-1.1-0.3
							c-0.4,0.2-0.6,0.6-0.5,1c0.9,4.2,1,6.6,0.5,7.3c-0.1,0.1-0.2,0.2-0.4,0.2c-1.4,0-4.5-2.1-6.7-3.7c-0.3-0.3-0.8-0.2-1.1,0.1
							c-0.3,0.3-0.3,0.8-0.1,1.1c5,6.5,4.1,13.9,4.1,13.9c0,0.1,0,0.2,0,0.3c0,1.8,2.5,2.5,4.8,3c2.4,0.5,5.7,0.7,9.1,0.7v0
							c0,0,0.1,0,0.1,0c0,0,0.1,0,0.1,0v0c3.4,0,6.6-0.3,9.1-0.7c2.2-0.4,4.8-1.1,4.8-3c0-0.1,0-0.2,0-0.3c0,0-0.9-7.4,4.1-13.9
							c0.3-0.3,0.2-0.8-0.1-1.1C121.9,15.5,121.4,15.5,121,15.7z M104.3,32.3L104.3,32.3C104.3,32.3,104.3,32.3,104.3,32.3
							c-0.1,0-0.2,0-0.2,0h0c-5.4,0-9-0.6-10.6-1.2c1.6-0.5,5.2-1.2,10.6-1.2h0c0,0,0.1,0,0.1,0s0.1,0,0.1,0h0c5.4,0,9,0.6,10.6,1.2
							C113.4,31.7,109.8,32.3,104.3,32.3z"/>
					</g>
				</g>
				<g>
					<g>
						<circle class="st0" cx="104.2" cy="4.7" r="2.7"/>
					</g>
				</g>
				<g>
					<g>
						<circle class="st0" cx="93" cy="7.9" r="2.2"/>
					</g>
				</g>
				<g>
					<g>
						<circle class="st0" cx="115.2" cy="7.9" r="2.2"/>
					</g>
				</g>
				<g>
					<g>
						<circle class="st0" cx="84.5" cy="14.2" r="1.5"/>
					</g>
				</g>
				<g>
					<g>
						<circle class="st0" cx="123.9" cy="14.2" r="1.5"/>
					</g>
				</g>
			</g>
		</g>
	</g>
</g>
</svg>
