<?xml version="1.0" encoding="utf-8"?>
<!-- Generator: Adobe Illustrator 23.0.1, SVG Export Plug-In . SVG Version: 6.00 Build 0)  -->
<svg version="1.1" id="Layer_1" xmlns="http://www.w3.org/2000/svg" xmlns:xlink="http://www.w3.org/1999/xlink" x="0px" y="0px"
	 viewBox="0 0 520 517.5" style="enable-background:new 0 0 520 517.5;" xml:space="preserve">
<style type="text/css">
	.st0{fill:#FFFFFF;}
</style>
<g>
	<path class="st0" d="M38,145.3l3-2.1l1.5,2.4l-3.2,2.1l3.3,1.6l-1.3,2.5l-3.3-1.7l0.3,3.8l-2.8,0.2l-0.1-3.7l-3.1,2.1l-1.6-2.4
		l3.2-2.1l-3.3-1.6L32,144l3.3,1.7l-0.3-3.8l2.9-0.2L38,145.3z"/>
	<path class="st0" d="M63.4,125.5l-5.3,8.2l2.8,4l-2.7,4.2l-12.5-19.3l2.6-4l22.7,3.5l-2.8,4.3L63.4,125.5z M59.5,124.7l-8.6-1.6
		l4.9,7.2L59.5,124.7z"/>
	<path class="st0" d="M78.6,95.8l2.9-3.4l6.5,5.6c-0.1,1.4-0.5,2.9-1.1,4.3c-0.6,1.4-1.4,2.7-2.4,3.9c-1.4,1.7-3.1,2.8-4.9,3.6
		c-1.8,0.7-3.7,0.9-5.6,0.6c-1.9-0.3-3.6-1.2-5.2-2.5c-1.6-1.4-2.7-2.9-3.3-4.8s-0.7-3.7-0.2-5.7s1.4-3.7,2.8-5.4
		c1.2-1.4,2.5-2.5,4-3.2c1.4-0.7,3-1.1,4.5-1.1l0.2,4.2c-2.2,0.1-4,1-5.3,2.6c-0.9,1-1.4,2.1-1.7,3.3c-0.3,1.2-0.2,2.3,0.2,3.4
		c0.4,1.1,1.1,2.1,2.1,2.9c1,0.8,2.1,1.4,3.2,1.6c1.2,0.2,2.3,0.1,3.4-0.3c1.1-0.4,2.1-1.1,2.9-2.1c0.9-1.1,1.5-2.2,1.8-3.5
		L78.6,95.8z"/>
	<path class="st0" d="M102.3,87.1l-7-1.4l-0.2,0.2l-3,2.9l4.1,4.2l-3.5,3.4L78.1,81.3l6.6-6.3c1.3-1.3,2.7-2.2,4.1-2.7
		c1.4-0.5,2.8-0.6,4.1-0.3c1.3,0.3,2.5,1,3.6,2.2c1.1,1.1,1.7,2.4,2,3.7c0.2,1.3,0.1,2.7-0.5,4.1l8.1,1.6L102.3,87.1z M90.3,76.4
		c-1,0.1-2,0.6-3.1,1.6l-2.9,2.7l5.1,5.3l2.9-2.7c1.1-1,1.6-2,1.7-3c0.1-1-0.2-1.9-1-2.7C92.1,76.7,91.2,76.3,90.3,76.4z"/>
	<path class="st0" d="M118.8,68.2l2.4,3l-12.7,10.2L95.5,65l12.4-9.9l2.4,3l-8.6,6.9l2.9,3.6l7.6-6.1l2.4,2.9l-7.6,6.1l3,3.8
		L118.8,68.2z"/>
	<path class="st0" d="M133.3,57.7l-8.1,5.4l0.9,4.8l-4.2,2.8l-3.8-22.7l4-2.7l19.4,12.3l-4.3,2.8L133.3,57.7z M130,55.4l-7.2-4.9
		l1.7,8.5L130,55.4z"/>
	<path class="st0" d="M138.2,40.2l-5.9,3.2l-1.9-3.5l16-8.8l1.9,3.5l-5.9,3.2l8.2,14.9l-4.3,2.3L138.2,40.2z"/>
	<path class="st0" d="M170.2,42.3c-2-0.2-3.7-0.9-5.2-2.1s-2.7-2.7-3.4-4.7c-0.8-1.9-1-3.8-0.7-5.7c0.3-1.9,1.1-3.6,2.4-5.1
		c1.3-1.5,2.9-2.7,4.9-3.4c1.7-0.7,3.3-1,4.9-0.9c1.6,0.1,3.1,0.5,4.5,1.2l-1.8,3.8c-1.9-1-3.9-1.1-5.8-0.3
		c-1.2,0.5-2.2,1.2-2.9,2.1c-0.7,0.9-1.2,1.9-1.3,3.1c-0.2,1.2,0,2.3,0.5,3.6c0.5,1.2,1.2,2.2,2.1,2.9c0.9,0.7,1.9,1.2,3.1,1.3
		c1.2,0.2,2.3,0,3.5-0.5c2-0.8,3.3-2.2,4-4.3l4,1.5c-0.5,1.5-1.3,2.8-2.4,4c-1.1,1.1-2.6,2-4.2,2.7
		C174.2,42.2,172.2,42.5,170.2,42.3z"/>
	<path class="st0" d="M198.6,28.9l-9.4,2.7l-0.5,4.8l-4.8,1.4l3.1-22.8l4.6-1.3l14.9,17.5l-4.9,1.4L198.6,28.9z M196.1,25.8
		l-5.4-6.8l-1,8.6L196.1,25.8z"/>
	<path class="st0" d="M223.6,6.8l3.8,20.7l-3.9,0.7l-12.6-10.6l2.3,12.5l-4.7,0.9l-3.8-20.7l4-0.7l12.6,10.6l-2.3-12.5L223.6,6.8z"
		/>
	<path class="st0" d="M230.4,5.9l9.5-0.8c2.3-0.2,4.3,0.1,6.1,0.8s3.3,1.8,4.4,3.3c1.1,1.5,1.7,3.3,1.9,5.4c0.2,2.1-0.2,4-1,5.6
		c-0.8,1.7-2.1,3-3.8,4c-1.7,1-3.7,1.6-5.9,1.8l-9.5,0.8L230.4,5.9z M241,22.2c2.1-0.2,3.7-0.9,4.9-2.1c1.2-1.3,1.7-2.9,1.5-4.9
		c-0.2-2-0.9-3.5-2.2-4.6C243.8,9.5,242,9,240,9.2l-4.4,0.3l1,13L241,22.2z"/>
	<path class="st0" d="M265.8,18l-0.1,7.4l-4.9-0.1l0.1-7.5l-7.9-13.6l5.2,0.1l5.5,9.4l5.8-9.2l4.8,0.1L265.8,18z"/>
	<path class="st0" d="M286.7,26.4c-1.5-0.6-2.6-1.4-3.5-2.2l2.1-3.4c0.8,0.8,1.8,1.4,3,2s2.4,0.9,3.6,1.1c1.4,0.2,2.4,0.1,3.1-0.2
		c0.7-0.3,1.1-0.8,1.2-1.5c0.1-0.5-0.1-0.9-0.4-1.3c-0.3-0.4-0.8-0.7-1.4-1s-1.4-0.6-2.4-1c-1.5-0.6-2.8-1.1-3.7-1.6
		c-1-0.5-1.7-1.2-2.4-2.2s-0.8-2.1-0.6-3.5c0.2-1.2,0.6-2.3,1.4-3.2c0.8-0.9,1.9-1.5,3.3-1.9c1.4-0.4,3-0.5,4.9-0.2
		c1.3,0.2,2.6,0.5,3.8,1c1.2,0.5,2.3,1.1,3.1,1.8l-2,3.5c-1.8-1.3-3.6-2.1-5.6-2.4c-1.3-0.2-2.4-0.1-3.1,0.3
		c-0.7,0.4-1.1,0.9-1.2,1.6c-0.1,0.7,0.2,1.3,0.9,1.7c0.7,0.4,1.8,0.9,3.3,1.5c1.5,0.6,2.8,1.1,3.7,1.6s1.7,1.2,2.4,2.1
		c0.6,0.9,0.8,2.1,0.6,3.4c-0.2,1.2-0.6,2.2-1.4,3.1c-0.8,0.9-1.9,1.5-3.3,1.9c-1.4,0.4-3.1,0.5-5,0.2
		C289.7,27.5,288.1,27.1,286.7,26.4z"/>
	<path class="st0" d="M326.7,12.9l-4.7,20.5l-4.7-1.1l1.9-8.4l-9.3-2.1l-1.9,8.4l-4.7-1.1L308,8.6l4.7,1.1l-1.8,8.1l9.3,2.1l1.8-8.1
		L326.7,12.9z"/>
	<path class="st0" d="M331,35c-1.4-1.5-2.2-3.1-2.6-5c-0.4-1.9-0.3-3.8,0.4-5.7c0.7-1.9,1.7-3.5,3.2-4.8c1.5-1.2,3.2-2,5.1-2.3
		c2-0.3,4-0.1,6,0.6s3.8,1.8,5.1,3.2s2.2,3.1,2.6,5c0.4,1.9,0.3,3.8-0.4,5.8c-0.7,1.9-1.7,3.5-3.2,4.8c-1.5,1.2-3.2,2-5.1,2.3
		c-2,0.3-4,0.1-6-0.6S332.3,36.4,331,35z M340.9,34.6c1.1-0.2,2.1-0.7,3-1.5s1.5-1.8,1.9-3c0.4-1.2,0.5-2.4,0.3-3.6
		c-0.2-1.1-0.7-2.2-1.5-3s-1.7-1.5-2.9-1.9c-1.2-0.4-2.3-0.5-3.5-0.3s-2.1,0.7-3,1.5c-0.9,0.8-1.5,1.8-1.9,3
		c-0.4,1.2-0.5,2.4-0.3,3.6c0.2,1.1,0.7,2.2,1.5,3s1.7,1.5,2.9,1.9C338.6,34.7,339.7,34.8,340.9,34.6z"/>
	<path class="st0" d="M371.2,30.6c1,1.1,1.6,2.4,1.8,3.7s0,2.7-0.7,4.1c-0.6,1.4-1.5,2.5-2.7,3.2c-1.2,0.7-2.5,1.1-4,1.1
		c-1.5,0-3.1-0.4-4.8-1.2l-3.8-1.8l-2.4,5.3l-4.4-2l8.8-19.1l8.3,3.8C368.9,28.5,370.2,29.4,371.2,30.6z M365.7,38.4
		c1-0.3,1.7-0.9,2.2-2c0.5-1.1,0.5-2.1,0.1-2.9c-0.4-0.9-1.3-1.6-2.6-2.2l-3.6-1.7l-3,6.6l3.6,1.7C363.6,38.4,364.7,38.6,365.7,38.4
		z"/>
	<path class="st0" d="M399.8,51.4l1.8,3.3l-2.6,1.3l-1.7-3.4l-1.9,3.1l-2.4-1.5l2-3l-3.8-0.2l0.1-2.8l3.7,0.3l-1.7-3.3l2.6-1.3
		l1.7,3.5l2-3.1l2.4,1.5l-2.1,3l3.8,0.2l-0.1,2.9L399.8,51.4z"/>
	<path class="st0" d="M416.4,79l-7.5-6.2l-4.3,2.3l-3.8-3.2l20.6-10.1l3.7,3.1l-6.2,22.1l-3.9-3.3L416.4,79z M417.6,75.2l2.6-8.3
		l-7.7,4L417.6,75.2z"/>
	<path class="st0" d="M444.1,97.6l3,3.3l-6.3,5.8c-1.4-0.3-2.8-0.8-4.1-1.6c-1.4-0.8-2.5-1.8-3.6-2.9c-1.5-1.6-2.5-3.4-2.9-5.3
		c-0.5-1.9-0.5-3.8,0.1-5.6s1.6-3.5,3.1-4.9c1.5-1.4,3.2-2.3,5.1-2.7c1.9-0.4,3.8-0.2,5.6,0.4c1.9,0.7,3.6,1.8,5,3.4
		c1.2,1.4,2.1,2.8,2.7,4.3c0.6,1.5,0.7,3.1,0.6,4.6l-4.2-0.4c0.2-2.2-0.5-4-1.9-5.6c-0.9-1-1.9-1.7-3-2.1c-1.1-0.4-2.2-0.5-3.4-0.2
		c-1.1,0.3-2.2,0.8-3.2,1.7c-1,0.9-1.6,1.9-2,3c-0.4,1.1-0.4,2.2-0.1,3.4s0.9,2.2,1.8,3.2c0.9,1,2,1.8,3.2,2.2L444.1,97.6z"/>
	<path class="st0" d="M449.9,122.1l2.2-6.8l-0.1-0.2l-2.5-3.4l-4.7,3.5l-2.9-3.9l16.8-12.7l5.5,7.3c1.1,1.5,1.8,3,2.2,4.4
		c0.3,1.5,0.3,2.8-0.2,4.1s-1.3,2.4-2.6,3.3s-2.5,1.5-3.9,1.5c-1.4,0.1-2.7-0.2-4-1l-2.5,7.8L449.9,122.1z M462,111.5
		c0-1-0.4-2.1-1.3-3.2l-2.4-3.2l-5.8,4.4l2.4,3.2c0.9,1.2,1.8,1.9,2.8,2.1c1,0.2,1.9,0,2.8-0.7C461.4,113.3,461.9,112.5,462,111.5z"
		/>
	<path class="st0" d="M466.7,140.8l-3.3,2.1l-8.6-13.8l17.8-11.1l8.4,13.5l-3.3,2.1l-5.8-9.4l-3.9,2.4l5.2,8.3l-3.2,2l-5.2-8.3
		l-4.1,2.6L466.7,140.8z"/>
	<path class="st0" d="M475.4,156.4l-4.4-8.7l-4.9,0.4l-2.2-4.4l23-1.1l2.2,4.3l-14.5,17.8l-2.3-4.6L475.4,156.4z M478,153.4l5.7-6.6
		l-8.7,0.6L478,153.4z"/>
	<path class="st0" d="M492.2,163.4l-2.5-6.2l3.7-1.5l6.8,17l-3.7,1.5l-2.5-6.2l-15.8,6.3l-1.8-4.5L492.2,163.4z"/>
	<path class="st0" d="M486.2,194.9c0.5-1.9,1.4-3.6,2.7-4.9s3-2.3,5-2.9c2-0.5,3.9-0.5,5.8,0c1.8,0.5,3.4,1.5,4.8,3
		c1.3,1.4,2.3,3.2,2.8,5.3c0.5,1.8,0.6,3.4,0.3,5c-0.2,1.6-0.8,3-1.7,4.3l-3.6-2.3c1.2-1.8,1.6-3.7,1-5.7c-0.3-1.3-0.9-2.3-1.7-3.1
		c-0.8-0.8-1.8-1.4-2.9-1.7c-1.1-0.3-2.3-0.3-3.6,0.1c-1.3,0.3-2.3,0.9-3.1,1.7s-1.4,1.8-1.7,2.9c-0.3,1.1-0.3,2.3,0.1,3.6
		c0.5,2,1.8,3.5,3.7,4.5l-2,3.7c-1.4-0.7-2.6-1.6-3.6-2.9c-1-1.3-1.7-2.8-2.2-4.5C485.8,198.8,485.8,196.9,486.2,194.9z"/>
	<path class="st0" d="M496.1,224.7l-1.6-9.6l-4.7-1.1l-0.8-4.9l22.2,5.8l0.8,4.7l-19.2,12.7l-0.8-5L496.1,224.7z M499.5,222.6
		l7.4-4.6l-8.5-2L499.5,222.6z"/>
	<path class="st0" d="M515,252.1l-21,1.3l-0.3-4l12.1-11.2l-12.7,0.8l-0.3-4.8l21-1.3l0.3,4L502,248.2l12.7-0.8L515,252.1z"/>
	<path class="st0" d="M515.1,259l-0.4,9.5c-0.1,2.3-0.6,4.3-1.5,6c-0.9,1.7-2.2,3-3.8,3.9c-1.6,0.9-3.5,1.3-5.6,1.2
		s-3.9-0.6-5.5-1.7c-1.5-1-2.7-2.4-3.5-4.2c-0.8-1.8-1.2-3.8-1.1-6.1l0.4-9.5L515.1,259z M497.8,267.6c-0.1,2.1,0.4,3.8,1.6,5.1
		c1.1,1.3,2.7,2,4.7,2.1c2,0.1,3.6-0.5,4.8-1.7c1.2-1.2,1.9-2.9,2-5l0.2-4.4l-13-0.5L497.8,267.6z"/>
	<path class="st0" d="M499,292.8l-7.4-1l0.6-4.8l7.4,1l14.4-6.3l-0.7,5.1l-10,4.4l8.5,6.8l-0.6,4.7L499,292.8z"/>
	<path class="st0" d="M488.1,312.4c0.8-1.4,1.7-2.4,2.6-3.2l3.1,2.5c-0.9,0.7-1.6,1.6-2.3,2.7c-0.7,1.1-1.2,2.3-1.5,3.5
		c-0.3,1.3-0.4,2.4-0.2,3.1s0.7,1.2,1.3,1.4c0.5,0.1,0.9,0,1.4-0.3c0.4-0.3,0.8-0.7,1.1-1.3s0.8-1.3,1.3-2.2
		c0.8-1.5,1.5-2.6,2.1-3.5c0.6-0.9,1.4-1.6,2.4-2.1c1-0.5,2.2-0.6,3.5-0.2c1.2,0.3,2.2,0.9,3,1.8c0.8,0.9,1.3,2,1.5,3.5
		s0.1,3.1-0.4,4.9c-0.3,1.3-0.8,2.5-1.4,3.7c-0.6,1.2-1.4,2.1-2.2,2.9l-3.2-2.4c1.5-1.6,2.6-3.3,3.1-5.2c0.3-1.3,0.4-2.3,0.1-3.1
		c-0.3-0.7-0.7-1.2-1.4-1.4s-1.3,0-1.8,0.7c-0.5,0.6-1.1,1.7-1.9,3.1c-0.8,1.5-1.5,2.6-2.1,3.5c-0.6,0.9-1.4,1.6-2.4,2.1
		c-1,0.5-2.1,0.6-3.5,0.2c-1.2-0.3-2.1-0.9-2.9-1.8c-0.8-0.9-1.3-2.1-1.5-3.5c-0.2-1.4-0.1-3.1,0.4-5
		C486.7,315.3,487.3,313.8,488.1,312.4z"/>
	<path class="st0" d="M496.8,353.9l-19.8-7.1l1.6-4.6l8.1,2.9l3.2-9l-8.1-2.9l1.6-4.6l19.8,7.1l-1.6,4.6l-7.8-2.8l-3.2,9l7.8,2.8
		L496.8,353.9z"/>
	<path class="st0" d="M474.3,355.4c1.6-1.2,3.4-1.8,5.3-2c1.9-0.2,3.8,0.2,5.7,1.1c1.9,0.9,3.3,2.2,4.4,3.8c1.1,1.6,1.6,3.4,1.7,5.4
		c0.1,2-0.3,4-1.3,5.9c-0.9,2-2.2,3.5-3.8,4.7c-1.6,1.2-3.4,1.8-5.3,2c-1.9,0.2-3.8-0.2-5.7-1.1c-1.9-0.9-3.3-2.2-4.4-3.8
		c-1-1.6-1.6-3.4-1.7-5.4c-0.1-2,0.3-3.9,1.3-5.9C471.4,358.1,472.7,356.6,474.3,355.4z M473.5,365.3c0.1,1.1,0.5,2.2,1.1,3.2
		c0.7,1,1.6,1.7,2.8,2.3c1.2,0.6,2.3,0.8,3.5,0.7c1.2-0.1,2.2-0.4,3.2-1.1c0.9-0.7,1.7-1.5,2.2-2.7c0.5-1.1,0.8-2.2,0.7-3.4
		c-0.1-1.1-0.5-2.2-1.1-3.2s-1.6-1.7-2.8-2.3c-1.2-0.6-2.3-0.8-3.5-0.7c-1.2,0.1-2.2,0.4-3.2,1.1c-0.9,0.7-1.7,1.5-2.2,2.7
		C473.7,363,473.4,364.1,473.5,365.3z"/>
	<path class="st0" d="M473.8,395.9c-1.2,0.8-2.5,1.3-3.9,1.3c-1.4,0-2.7-0.4-4-1.2c-1.3-0.8-2.3-1.8-2.9-3.1
		c-0.6-1.2-0.8-2.6-0.6-4.1s0.8-3,1.8-4.6l2.2-3.6l-4.9-3l2.5-4.1l17.9,11l-4.8,7.7C476.2,393.8,475.1,395,473.8,395.9z
		 M466.8,389.4c0.1,1,0.7,1.8,1.7,2.4c1,0.6,2,0.8,2.9,0.4c0.9-0.3,1.8-1.1,2.5-2.3l2.1-3.4l-6.2-3.8l-2.1,3.4
		C467,387.3,466.6,388.5,466.8,389.4z"/>
	<path class="st0" d="M455.8,414.5l-3.4,1.5l-1-2.7l3.6-1.4l-2.9-2.2l1.7-2.2l2.9,2.3l0.5-3.8l2.8,0.4l-0.6,3.7l3.4-1.5l1.1,2.6
		l-3.6,1.4l2.9,2.2l-1.7,2.2l-2.8-2.3l-0.5,3.8l-2.8-0.4L455.8,414.5z"/>
	<path class="st0" d="M426.9,428.9l6.8-7l-1.9-4.5l3.5-3.6l8.4,21.4l-3.4,3.4l-21.6-8l3.6-3.6L426.9,428.9z M430.6,430.4l8.1,3.3
		l-3.4-8L430.6,430.4z"/>
	<path class="st0" d="M406.1,454.9l-3.5,2.7l-5.2-6.7c0.4-1.4,1-2.7,1.9-4c0.9-1.3,2-2.4,3.2-3.3c1.7-1.3,3.6-2.2,5.5-2.5
		c1.9-0.3,3.8-0.2,5.6,0.5s3.3,1.9,4.6,3.5c1.3,1.6,2,3.4,2.3,5.3c0.2,1.9-0.1,3.8-0.9,5.6c-0.8,1.8-2.1,3.4-3.8,4.7
		c-1.5,1.1-3,1.9-4.5,2.3c-1.6,0.4-3.1,0.5-4.6,0.2l0.7-4.2c2.2,0.3,4.1-0.2,5.7-1.5c1.1-0.8,1.8-1.8,2.3-2.9
		c0.5-1.1,0.6-2.2,0.5-3.4c-0.2-1.2-0.7-2.3-1.5-3.3c-0.8-1-1.7-1.8-2.8-2.2c-1.1-0.5-2.2-0.6-3.4-0.4c-1.2,0.2-2.3,0.7-3.3,1.5
		c-1.1,0.9-1.9,1.9-2.4,3L406.1,454.9z"/>
	<path class="st0" d="M381.1,458.7l6.6,2.8l0.2-0.1l3.6-2.3l-3.1-4.9l4.1-2.6l11.2,17.7l-7.7,4.9c-1.6,1-3.1,1.6-4.6,1.8
		c-1.5,0.2-2.9,0-4.1-0.5c-1.2-0.6-2.3-1.5-3.1-2.8c-0.8-1.3-1.2-2.7-1.2-4c0-1.4,0.5-2.7,1.3-3.9l-7.6-3.2L381.1,458.7z
		 M390.8,471.6c1,0.1,2.1-0.2,3.3-1l3.3-2.1l-3.9-6.2l-3.3,2.1c-1.2,0.8-2,1.6-2.3,2.6s-0.1,1.9,0.5,2.9
		C389,470.9,389.8,471.5,390.8,471.6z"/>
	<path class="st0" d="M361.2,473.9l-1.8-3.5l14.5-7.4l9.6,18.7l-14.1,7.3l-1.8-3.5l9.8-5l-2.1-4.1l-8.7,4.5l-1.7-3.4l8.7-4.5
		l-2.2-4.3L361.2,473.9z"/>
	<path class="st0" d="M344.9,481.3l9-3.6l0-4.9l4.6-1.9l-0.8,23l-4.5,1.8l-16.6-16l4.7-1.9L344.9,481.3z M347.7,484.2l6.1,6.2
		l0.1-8.7L347.7,484.2z"/>
	<path class="st0" d="M336.6,497.5l6.4-2l1.2,3.8l-17.5,5.4l-1.2-3.8l6.4-2l-5-16.3l4.6-1.4L336.6,497.5z"/>
	<path class="st0" d="M305.6,488.9c1.9,0.6,3.4,1.7,4.7,3.1s2.1,3.2,2.4,5.3c0.4,2,0.2,4-0.5,5.8c-0.7,1.8-1.8,3.3-3.3,4.5
		c-1.5,1.2-3.4,2-5.5,2.4c-1.8,0.3-3.5,0.3-5-0.1c-1.6-0.4-2.9-1.1-4.1-2.1l2.6-3.4c1.7,1.4,3.6,1.9,5.6,1.5
		c1.3-0.2,2.4-0.7,3.3-1.4c0.9-0.7,1.6-1.7,1.9-2.8c0.4-1.1,0.5-2.3,0.2-3.6c-0.2-1.3-0.7-2.4-1.4-3.3c-0.7-0.9-1.7-1.6-2.8-1.9
		s-2.3-0.5-3.6-0.2c-2.1,0.4-3.7,1.5-4.8,3.4l-3.6-2.3c0.8-1.4,1.8-2.5,3.2-3.4c1.3-0.9,2.9-1.5,4.7-1.8
		C301.7,488.2,303.7,488.3,305.6,488.9z"/>
	<path class="st0" d="M275.1,496.3l9.7-0.8l1.5-4.6l5-0.4l-7.6,21.7l-4.8,0.4l-11-20.2l5.1-0.4L275.1,496.3z M276.9,499.8l4,7.7
		l2.7-8.3L276.9,499.8z"/>
	<path class="st0" d="M246.2,512.9l0.4-21l4,0.1l10.2,12.9l0.2-12.7l4.8,0.1l-0.4,21l-4-0.1l-10.2-12.9L251,513L246.2,512.9z"/>
	<path class="st0" d="M239.4,512.5l-9.5-1.1c-2.3-0.3-4.2-0.9-5.8-2c-1.6-1.1-2.8-2.5-3.6-4.1c-0.8-1.7-1-3.6-0.8-5.7s1-3.9,2.1-5.3
		s2.7-2.5,4.5-3.2c1.8-0.7,3.9-0.8,6.2-0.6l9.5,1.1L239.4,512.5z M232.2,494.5c-2.1-0.3-3.8,0.1-5.2,1.1c-1.4,1-2.2,2.5-2.4,4.5
		c-0.2,2,0.2,3.6,1.3,4.9c1.1,1.3,2.7,2.1,4.8,2.3l4.4,0.5l1.6-12.9L232.2,494.5z"/>
	<path class="st0" d="M207.1,493.6l1.6-7.3l4.8,1l-1.6,7.3l5.1,14.9l-5-1.1l-3.5-10.3l-7.5,7.9l-4.7-1L207.1,493.6z"/>
	<path class="st0" d="M188.4,481.2c1.3,0.9,2.3,1.9,2.9,2.9l-2.8,2.9c-0.6-0.9-1.5-1.8-2.5-2.6c-1-0.8-2.1-1.4-3.3-1.8
		c-1.3-0.5-2.3-0.6-3.1-0.4c-0.8,0.2-1.2,0.6-1.5,1.2c-0.2,0.5-0.1,0.9,0.1,1.4c0.3,0.4,0.6,0.9,1.2,1.2c0.5,0.4,1.2,0.9,2.1,1.4
		c1.4,0.9,2.5,1.7,3.3,2.4s1.5,1.6,1.9,2.6c0.4,1,0.4,2.2-0.1,3.5c-0.4,1.2-1.1,2.1-2,2.8c-0.9,0.7-2.1,1.1-3.6,1.2
		s-3.1-0.2-4.9-0.8c-1.3-0.4-2.4-1-3.6-1.7c-1.1-0.7-2-1.5-2.7-2.4l2.6-3c1.5,1.7,3.1,2.8,5,3.5c1.3,0.4,2.3,0.6,3.1,0.4
		c0.8-0.2,1.3-0.6,1.5-1.3s0.1-1.3-0.5-1.9s-1.6-1.3-2.9-2.1c-1.4-0.9-2.5-1.7-3.3-2.4s-1.5-1.5-1.9-2.6c-0.4-1-0.4-2.2,0.1-3.5
		c0.4-1.1,1.1-2.1,2-2.8s2.2-1.1,3.6-1.2c1.5-0.1,3.1,0.2,4.9,0.8C185.6,479.5,187,480.2,188.4,481.2z"/>
	<path class="st0" d="M146.3,486.3l8.7-19.1l4.4,2l-3.6,7.8l8.7,4l3.6-7.8l4.4,2l-8.7,19.1l-4.4-2l3.4-7.5l-8.7-4l-3.4,7.5
		L146.3,486.3z"/>
	<path class="st0" d="M146.7,463.8c1,1.7,1.6,3.5,1.6,5.4c0,1.9-0.5,3.8-1.5,5.5c-1,1.8-2.4,3.1-4.1,4c-1.7,0.9-3.5,1.3-5.5,1.3
		c-2-0.1-3.9-0.7-5.8-1.8c-1.9-1.1-3.3-2.5-4.3-4.2c-1-1.7-1.5-3.5-1.6-5.4c0-1.9,0.5-3.8,1.5-5.6s2.4-3.1,4.1-4s3.5-1.3,5.5-1.3
		c2,0.1,3.9,0.7,5.8,1.8C144.2,460.7,145.7,462.1,146.7,463.8z M136.9,462.2c-1.2,0-2.2,0.3-3.2,0.9s-1.8,1.4-2.5,2.6
		c-0.7,1.1-1,2.3-1,3.4c0,1.2,0.2,2.3,0.8,3.3c0.6,1,1.4,1.8,2.5,2.4c1.1,0.6,2.2,1,3.3,1c1.2,0,2.2-0.3,3.2-0.9s1.8-1.4,2.5-2.6
		c0.7-1.1,1-2.3,1-3.4c0-1.2-0.2-2.3-0.8-3.3c-0.6-1-1.4-1.8-2.5-2.4C139.2,462.6,138,462.2,136.9,462.2z"/>
	<path class="st0" d="M106.4,460c-0.7-1.3-1.1-2.6-1-4c0.1-1.4,0.6-2.7,1.5-3.9c0.9-1.2,2-2.1,3.3-2.6c1.3-0.5,2.6-0.6,4.1-0.3
		c1.5,0.3,2.9,1,4.4,2.1l3.4,2.5l3.4-4.7l3.9,2.9L117.1,469l-7.3-5.4C108.2,462.6,107.1,461.3,106.4,460z M113.4,453.5
		c-1,0.1-1.8,0.6-2.5,1.5c-0.7,1-0.9,1.9-0.7,2.9c0.2,1,0.9,1.9,2.1,2.7l3.2,2.3l4.3-5.9l-3.2-2.3
		C115.4,453.9,114.4,453.5,113.4,453.5z"/>
	<path class="st0" d="M82.6,433.9l-1.1-3.6l2.8-0.7l1,3.7l2.5-2.6l2,2l-2.6,2.6l3.7,0.9l-0.7,2.8l-3.6-1l1.1,3.6l-2.8,0.7l-0.9-3.7
		l-2.6,2.6l-2-2l2.6-2.6l-3.7-0.9l0.7-2.8L82.6,433.9z"/>
	<path class="st0" d="M71.7,403.6l6.1,7.6l4.7-1.4l3.1,3.9l-22.2,5.8l-3-3.7l10.5-20.5l3.2,4L71.7,403.6z M69.8,407.1l-4.2,7.6
		l8.4-2.4L69.8,407.1z"/>
	<path class="st0" d="M48.3,379.9l-2.3-3.8l7.3-4.4c1.3,0.5,2.6,1.3,3.7,2.4s2.1,2.2,2.9,3.5c1.1,1.9,1.7,3.8,1.8,5.8
		c0.1,2-0.3,3.8-1.2,5.5c-0.9,1.7-2.2,3.1-4,4.2c-1.8,1.1-3.6,1.6-5.6,1.6c-1.9,0-3.7-0.5-5.4-1.5c-1.7-1-3.1-2.5-4.3-4.4
		c-0.9-1.6-1.5-3.2-1.8-4.8c-0.2-1.6-0.1-3.1,0.4-4.6l4.1,1.2c-0.6,2.1-0.3,4.1,0.8,5.9c0.7,1.1,1.5,2,2.6,2.6
		c1,0.6,2.1,0.9,3.3,0.9c1.2,0,2.3-0.4,3.5-1.1c1.1-0.7,2-1.5,2.5-2.5c0.6-1,0.8-2.1,0.8-3.3s-0.4-2.3-1.1-3.5
		c-0.7-1.2-1.6-2.1-2.7-2.8L48.3,379.9z"/>
	<path class="st0" d="M47.6,354.6l-3.5,6.2l0.1,0.2l1.8,3.8l5.3-2.5l2.1,4.4l-19,9l-3.9-8.2c-0.8-1.7-1.2-3.3-1.2-4.8
		c0-1.5,0.3-2.8,1-4c0.7-1.2,1.8-2.1,3.2-2.7c1.4-0.7,2.8-0.9,4.1-0.7c1.3,0.2,2.6,0.8,3.7,1.8l4.1-7.2L47.6,354.6z M33.6,362.6
		c-0.2,1,0,2.1,0.6,3.4l1.7,3.6l6.6-3.1l-1.7-3.6c-0.6-1.3-1.4-2.2-2.3-2.6c-0.9-0.4-1.9-0.4-2.9,0.1
		C34.5,360.9,33.8,361.7,33.6,362.6z"/>
	<path class="st0" d="M34.9,332.9l3.7-1.4l5.6,15.3l-19.7,7.3L19,339.2l3.7-1.4l3.8,10.4l4.3-1.6l-3.4-9.1l3.5-1.3l3.4,9.1l4.6-1.7
		L34.9,332.9z"/>
	<path class="st0" d="M29.5,315.9l2.5,9.4l4.8,0.6l1.3,4.8l-22.7-3.6l-1.2-4.6L32,308l1.3,4.9L29.5,315.9z M26.3,318.3l-6.9,5.3
		l8.6,1.1L26.3,318.3z"/>
	<path class="st0" d="M14.5,305.7l1.2,6.6l-3.9,0.7l-3.2-18l3.9-0.7l1.2,6.6l16.8-3l0.9,4.8L14.5,305.7z"/>
	<path class="st0" d="M26.7,276c-0.8,1.8-2,3.2-3.6,4.3c-1.6,1.1-3.4,1.7-5.5,1.8c-2.1,0.1-4-0.3-5.7-1.2c-1.7-0.9-3.1-2.2-4.1-3.9
		c-1-1.7-1.6-3.6-1.7-5.8c-0.1-1.8,0.1-3.5,0.7-5c0.6-1.5,1.4-2.8,2.6-3.8l3,3c-1.6,1.5-2.3,3.3-2.2,5.4c0.1,1.3,0.4,2.4,1,3.4
		c0.6,1,1.5,1.7,2.5,2.3s2.2,0.7,3.5,0.7c1.3-0.1,2.4-0.4,3.4-1c1-0.6,1.7-1.5,2.3-2.5c0.5-1,0.7-2.2,0.7-3.5
		c-0.1-2.1-1-3.8-2.8-5.1l2.7-3.3c1.3,0.9,2.3,2.1,3,3.6c0.7,1.4,1.1,3.1,1.2,4.9C27.9,272.2,27.5,274.2,26.7,276z"/>
	<path class="st0" d="M23,244.9l-0.4,9.7l4.4,2l-0.2,5L6.2,251.5l0.2-4.8l21.3-8.6l-0.2,5.1L23,244.9z M19.2,246.3l-8.2,3L19,253
		L19.2,246.3z"/>
	<path class="st0" d="M9.8,214.3l20.8,2.9l-0.5,4L16,229.7l12.6,1.7l-0.7,4.8l-20.8-2.9l0.5-4l14.1-8.6L9.2,219L9.8,214.3z"/>
	<path class="st0" d="M11.1,207.6l2.3-9.3c0.5-2.2,1.4-4.1,2.7-5.6s2.8-2.5,4.5-3.1c1.8-0.6,3.7-0.6,5.7-0.1c2,0.5,3.7,1.4,5,2.7
		c1.3,1.3,2.2,2.9,2.6,4.8c0.4,1.9,0.4,4-0.2,6.2l-2.3,9.3L11.1,207.6z M29.8,202.6c0.5-2,0.3-3.8-0.5-5.3c-0.8-1.5-2.2-2.5-4.2-3
		c-1.9-0.5-3.6-0.2-5.1,0.7c-1.4,0.9-2.4,2.4-2.9,4.5l-1.1,4.3l12.6,3.1L29.8,202.6z"/>
	<path class="st0" d="M33.7,177.7l7,2.4l-1.6,4.6l-7.1-2.5l-15.4,3.3l1.7-4.9l10.7-2.3l-7-8.4l1.6-4.5L33.7,177.7z"/>
</g>
</svg>
