<?xml version="1.0" encoding="utf-8"?>
<!-- Generator: Adobe Illustrator 23.0.1, SVG Export Plug-In . SVG Version: 6.00 Build 0)  -->
<svg version="1.1" id="Capa_1" xmlns="http://www.w3.org/2000/svg" xmlns:xlink="http://www.w3.org/1999/xlink" x="0px" y="0px"
	 viewBox="0 0 512 512" style="enable-background:new 0 0 512 512;" xml:space="preserve">
<style type="text/css">
	.st0{fill:#D8442B;}
	.st1{fill:#FC6243;}
	.st2{fill:#FCE277;}
	.st3{fill:#1178CE;}
	.st4{fill:#2586FD;}
	.st5{fill:#515BBF;}
	.st6{fill:#6E76E3;}
</style>
<g>
	<g>
		<path class="st0" d="M419.4,129.6c-5-16.2-20.5-11.3-25.5-27.5c-5-16.2,10.4-21.1,5.4-37.3c-5-16.2-20.5-11.3-25.5-27.5
			c-5-16.2,10.4-21.1,5.4-37.3l-79,59.1l20.9,67.4L419.4,129.6z"/>
		<path class="st0" d="M57.4,243.9c-5-16.2,10.4-21.1,5.4-37.3s-20.5-11.3-25.5-27.5s10.4-21.1,5.4-37.3s-20.5-11.3-25.5-27.5
			l98.3,3.1l20.9,67.4L57.4,243.9z"/>
	</g>
	<path class="st1" d="M316.7,47l24.8,79.9c4.4,14.1-3.4,29.1-17.4,33.5l-171.1,54c-13.9,4.4-28.8-3.4-33.2-17.4c0,0,0-0.1,0-0.1
		L95.1,117c-4.4-14.1,3.4-29.1,17.4-33.5l171.1-54C297.4,25.1,312.3,32.9,316.7,47z"/>
	<g>
		<path class="st2" d="M169.1,65.6l13.6,139.4l-25.8,8.1L143.3,73.8L169.1,65.6z"/>
		<path class="st2" d="M224.4,48.2L238,187.6l-25.8,8.2L198.6,56.3L224.4,48.2z"/>
		<path class="st2" d="M279.7,30.7l13.5,139.4l-25.8,8.1L253.9,38.8L279.7,30.7z"/>
	</g>
	<path class="st3" d="M217.4,492.3L362,358.2l17.9,19.7L235.3,512L217.4,492.3z"/>
	<ellipse class="st4" cx="424.1" cy="318.8" rx="87.9" ry="88.6"/>
	<path class="st3" d="M355.6,243.7L355.6,243.7c5.4-5,13.8-4.6,18.7,0.8l119,130.4c5,5.4,4.6,13.9-0.8,18.9l0,0
		c-5.4,5-13.8,4.6-18.7-0.8l-119-130.4C349.9,257.2,350.2,248.7,355.6,243.7z"/>
	<g>
		<path class="st5" d="M240.2,217.2c7.1,7.7,1.3,13.1,8.3,20.8c7.1,7.7,12.9,2.3,20,10c7.1,7.7,1.3,13.1,8.4,20.9
			c7.1,7.7,12.9,2.3,20,10l-76.1,38.3l-24.2-26.4L240.2,217.2z"/>
		<path class="st5" d="M4.1,437.5c7.1,7.7,12.9,2.3,20,10s1.3,13.1,8.4,20.8c7.1,7.7,12.9,2.3,20,10c7.1,7.7,1.3,13.1,8.4,20.9
			l43.7-73.6l-24.2-26.4L4.1,437.5z"/>
		<g transform="matrix(.734 -.679 .679 .734 -48.529 50.085)">
			
				<ellipse transform="matrix(-0.9999 1.050921e-02 -1.050921e-02 -0.9999 -122.929 723.5036)" class="st6" cx="-63.4" cy="361.4" rx="102.3" ry="68.1"/>
			
				<ellipse transform="matrix(-1 4.654698e-03 -4.654698e-03 -1 -125.0478 723.1487)" class="st5" cx="-63.4" cy="361.4" rx="102.3" ry="26.7"/>
		</g>
	</g>
</g>
</svg>
